<svg width="90" height="56" viewBox="0 0 90 56" fill="none" xmlns="http://www.w3.org/2000/svg">
<path d="M81.8487 48.7158C85.8776 48.7877 88.6656 48.8734 89.6286 48.973C90.0949 49.0213 90.1339 49.2431 89.6785 49.2996C88.9604 49.3884 85.6982 49.4536 80.8141 49.4998C81.1871 49.3175 81.537 49.0475 81.8487 48.7158Z" fill="#173F6F"/>
<path d="M42.0763 48.4453L49.5152 48.4597C49.6706 48.7749 49.6984 49.142 49.8223 49.5989L32.1032 49.5825C31.9172 49.3663 31.775 49.1338 31.7288 48.8571C36.1382 48.7061 39.6081 48.9171 42.0763 48.4453Z" fill="#173F6F"/>
<path d="M0.207399 48.7851C1.17518 48.6763 5.38819 48.5931 11.5019 48.5366C11.9568 48.5869 12.4226 48.6172 12.8817 48.6449C15.9127 48.8287 18.5777 48.9648 21.6035 48.8734C21.5451 49.1517 21.4462 49.3719 21.3238 49.5573C9.191 49.5223 0.305822 49.4725 0.185734 49.4387C-0.148161 49.3447 0.0312691 48.8051 0.207399 48.7856V48.7851Z" fill="#173F6F"/>
<path d="M61.8674 52.6752C62.9171 52.6752 63.9438 52.4355 65.0293 52.2399C66.541 51.9678 66.8076 51.0452 67.2738 50.1729C67.7928 49.2016 67.9256 48.8437 67.5191 48.3232C66.1002 46.5057 59.768 43.7734 55.3336 44.7448C54.5344 44.9198 52.8829 46.211 52.4571 46.6844C49.6899 49.7586 56.0226 52.6758 61.8679 52.6758L61.8674 52.6752Z" fill="#173F6F"/>
<path d="M75.8057 14.4424C72.3985 15.4939 68.4751 15.7983 65.1202 14.9733C63.7968 14.6478 63.7469 13.4393 64.2612 9.44912C64.5687 7.06233 66.1025 9.22066 73.8692 7.61783C75.5434 7.27231 75.8486 7.21943 76.0996 7.16912C75.7601 5.08471 74.5818 3.41565 72.9839 2.45457C73.3055 3.67286 73.3225 4.54872 72.0844 4.99281C70.3674 5.60838 69.0704 5.79372 67.5851 4.75408C66.3281 3.87412 64.3215 2.43506 63.2162 2.43506C62.4782 2.43506 60.5897 3.4444 59.7807 4.59698C60.1146 4.59698 60.4405 4.59904 60.7753 4.64935C64.7712 5.24849 63.908 14.2848 59.8136 14.4065C63.0688 18.0311 74.0995 18.4603 75.8057 14.4424Z" fill="#173F6F"/>
<path d="M51.7743 28.3617C51.1027 26.5017 51.2261 25.4097 51.4809 24.1103C52.2071 20.4056 56.4064 20.6376 58.6519 20.2438C60.417 19.9343 59.9258 19.8193 63.786 19.6812C64.3031 19.6627 64.1209 19.5929 64.0116 18.3509C63.9443 17.5855 59.6564 17.8026 57.8296 13.5943C57.6191 13.1102 56.8336 12.6733 56.1983 11.8498C56.3937 11.8539 56.592 11.8559 56.7931 11.8564C57.0804 12.1075 57.4326 12.2559 57.8489 12.2559C60.5361 12.2559 60.5361 6.0843 57.8489 6.0843C57.4095 6.0843 57.0417 6.24961 56.746 6.52582C56.552 6.53352 56.3443 6.54174 56.1305 6.54841C56.405 6.18184 56.737 5.8969 57.1063 5.72286C57.6667 5.35886 58.1908 5.49748 58.6429 4.27097C60.343 -0.34141 74.5272 -2.54338 77.0359 5.35424C77.706 7.46431 77.8016 11.8795 77.0594 14.1144C76.4538 15.938 75.7837 17.0972 72.6255 18.1138C70.941 18.6559 70.1258 18.2683 70.2746 18.9265C70.4154 19.5497 70.1927 19.9738 70.6796 20.0559C72.6453 20.3876 74.5399 20.5242 76.5927 22.0941C77.1305 22.5059 78.4991 21.3153 80.2632 23.124C81.7118 24.6098 82.0815 26.5171 81.9836 28.5856C81.9562 29.1657 81.7128 29.6709 81.3341 30.0786C80.9837 30.4559 81.2851 30.4056 82.4319 36.8036C83.1981 41.0777 81.5329 41.6752 81.7316 42.4669C81.9223 43.2262 82.1159 43.9855 82.2468 44.7623C82.4955 46.2368 81.8041 47.8006 80.5962 48.3037C79.5323 48.7468 77.4286 48.963 77.4908 48.2617C77.5464 47.6358 78.241 47.9372 78.9427 47.7688C79.6072 47.6091 80.3145 47.5347 80.8123 46.9325C81.4971 46.1043 81.604 44.3234 81.0436 43.1123C79.9924 44.423 77.2864 45.4724 78.2382 44.3958C79.1975 43.3115 80.7676 43.1071 81.5785 40.0883C82.0721 38.2509 81.3341 36.6547 80.5707 30.8723C80.145 30.9822 80.0056 31.281 80.0423 31.7168C80.1808 33.3638 79.732 39.5292 77.7847 44.0513C77.3429 45.077 76.6761 45.9611 76.0992 46.9001C75.973 47.106 75.7954 47.2754 75.5359 47.3837C75.3688 46.1911 78.022 41.8981 78.5749 37.2061C78.5975 37.0156 79.7226 30.3805 78.5109 26.3851C78.2137 25.4045 77.8774 24.4162 77.1348 23.7473C75.9734 22.7015 74.7429 21.7553 73.2067 21.4396C72.7979 21.3554 70.8868 21.0432 70.479 21.1351C70.6024 22.5583 70.6481 23.0758 70.2525 23.4603C69.1401 24.542 66.8787 24.9907 64.9022 24.1755C64.2659 23.9131 64.3681 23.6785 64.1934 20.8841C64.1651 20.4343 64.1972 20.6279 60.9213 20.807C60.5088 20.8296 60.1005 20.8502 59.6983 21.0643C61.0668 22.8822 61.4257 24.0071 60.6157 27.741C60.3232 29.0887 59.5321 29.8917 58.6505 30.228C58.0481 30.4575 60.2333 36.9694 58.1249 41.0427C57.3756 42.4905 56.3702 42.5182 57.1204 41.0489C58.8501 37.6635 57.9638 34.4168 57.8583 31.0972C57.8527 30.9154 57.8951 30.6803 57.8084 30.5622C57.6573 30.3563 54.7822 31.5551 52.5334 29.5436C52.3813 29.4075 52.2702 29.427 52.1473 29.5425C49.7624 31.7846 49.3014 34.6961 48.7325 38.0732C48.0101 42.3606 48.7645 42.7714 48.4551 42.9613C48.3364 43.0342 48.239 42.9459 48.1627 42.8612C46.7282 41.2717 49.0537 32.8201 49.4756 31.7194C50.8527 28.1235 52.0286 29.0646 51.7748 28.3622L51.7743 28.3617ZM80.0423 30.0365C80.7304 29.5733 81.1914 28.9963 81.1834 28.0989C81.1585 25.3712 79.9011 22.6517 77.6071 22.8648C79.5827 24.8157 79.8478 27.396 80.0423 30.0365ZM58.2374 12.8232C60.3176 13.7386 60.676 12.9659 61.4351 11.9694C62.344 10.7757 62.644 8.23647 61.6145 6.52941C61.0833 5.64842 60.1146 5.61454 59.2297 5.61454C61.0061 7.18965 61.3621 11.8149 58.2374 12.8232ZM71.3874 1.43957C71.1077 0.659719 66.087 0.788067 64.3281 1.48783C67.7579 2.92535 68.2788 4.44809 69.4632 4.37006C72.643 4.16008 72.3354 4.08409 71.3874 1.43957ZM76.8682 11.5607C77.0269 10.459 76.8225 9.37621 76.7302 8.28781C76.7128 8.0845 76.6417 8.02803 76.4416 8.09631C68.8232 10.7116 65.3463 8.83201 65.2323 9.49686C65.0095 10.7952 64.9144 12.1008 64.9963 13.4223C65.0693 14.5965 70.9452 14.3064 72.124 14.1703C74.4749 13.8993 76.3615 13.2555 76.5522 13.201C76.8061 13.1286 76.8701 11.7902 76.8682 11.5607ZM64.9808 20.73C65.1508 22.722 64.9234 23.7447 66.2797 23.8176C67.4669 23.8813 69.9176 23.4639 69.7378 22.1814C69.328 19.2638 69.8018 18.6189 69.3309 18.6616C67.7424 18.8058 66.2561 18.5245 64.8287 18.3499C64.7218 18.3037 64.7529 18.0604 64.9808 20.73ZM76.4642 13.8412C72.4626 15.251 68.356 15.2403 65.2205 14.4691C64.3926 14.2653 64.1896 13.6718 64.7251 9.51791C64.8951 8.19796 65.5742 8.98449 69.6233 8.7627C71.8631 8.64 72.8111 8.32734 76.1119 7.68662C76.6036 7.59112 76.6431 7.56905 76.5555 7.04127C75.8981 3.0881 72.6576 1.58589 72.1989 1.56844C71.9121 1.42417 72.4504 1.74248 72.6915 3.41719C72.7659 3.93469 72.5271 4.28997 71.9347 4.50303C69.3516 5.43074 68.5265 4.80234 67.7989 4.29305C64.0483 1.66906 63.2958 1.51093 61.6753 2.42684C60.3378 3.18256 59.6385 3.70674 58.9203 5.09036C59.5377 5.13964 60.1254 5.07033 60.7089 5.1571C63.0405 5.50416 63.4145 9.5749 62.2983 11.8333C60.8191 14.8275 58.9698 13.6277 58.5939 13.7689C60.2295 15.6002 60.4607 16.1218 63.1602 16.9987C66.9766 18.2385 75.8251 18.7432 76.4637 13.8407L76.4642 13.8412ZM52.6352 27.4848C53.1245 29.1796 54.6428 29.5893 56.2718 29.5487C57.3949 29.5205 59.0409 29.2956 59.5316 28.1938C60.0892 26.9417 60.3355 25.4959 59.9677 23.4475C59.7788 22.396 59.1219 21.9196 58.2426 21.6737C56.7304 21.2511 55.3624 21.8097 54.0089 22.4176C52.2933 23.1882 52.1478 25.7952 52.6352 27.4848Z" fill="#173F6F"/>
<path d="M75.1095 50.4512C76.65 50.1273 76.8981 50.2033 76.8925 49.6878C76.8826 48.8227 76.982 48.0034 76.1884 47.989C69.9207 47.8776 70.5226 47.4468 68.9172 47.8997C68.8183 47.9274 68.7396 47.9828 68.6718 47.8504C67.5646 45.6818 60.7647 42.7965 56.8762 43.2051C56.061 43.2909 57.0632 41.496 54.3101 40.2295C50.3857 38.4238 46.768 44.0558 49.9572 47.4135C51.0022 48.5132 50.1508 49.2632 51.7232 50.958C54.5093 53.9603 63.7557 55.0436 66.4956 53.1897C68.3869 51.9098 70.937 53.8895 72.6983 55.3722C73.295 55.8743 73.4372 55.6838 73.9223 55.3065C77.9158 52.1968 77.1218 52.2661 75.1095 50.4523V50.4512ZM61.4688 53.1769C52.1866 52.6265 49.9374 48.7462 52.1202 46.3225C52.578 45.8142 54.3039 44.4445 55.2406 44.2391C59.9076 43.2144 66.4023 46.0961 67.8792 47.9885C68.6855 49.0214 67.9254 49.868 67.3593 51.0586C66.877 52.0731 66.0929 52.5695 65.1054 52.7472C63.9012 52.9638 62.6998 53.2503 61.4688 53.1774V53.1769ZM49.8536 44.1072C49.7184 40.5473 55.0287 39.6093 55.858 43.0557C55.8995 43.2287 55.9343 43.354 55.6984 43.3817C53.4812 43.6436 51.427 45.4307 50.9207 46.5972C50.8082 46.8564 50.7027 46.7204 50.6019 46.5869C50.066 45.8779 49.8169 45.0652 49.8536 44.1072ZM67.7558 51.9452C68.7674 49.9882 69.1116 49.4034 69.0005 48.6261C68.9817 48.4952 69.0646 48.4341 69.1771 48.4192C70.2523 48.2796 71.2949 48.2898 72.2406 49.0045C72.25 49.0117 75.6977 51.8682 75.9016 52.0582C76.2289 52.3631 76.0302 52.5706 75.8884 52.7959C75.7029 53.0906 75.588 52.7467 75.4401 52.7004C75.4307 52.6974 72.1289 50.1139 71.8308 50.8404C71.7145 51.1233 72.0376 51.2532 72.2264 51.3784C72.3672 51.4719 75.1769 53.4033 75.1618 53.5814C75.1411 53.8233 74.5905 54.1246 74.4342 53.9655C73.813 53.333 73.0477 52.9253 72.3729 52.375C71.78 51.8913 70.5814 51.5787 70.9403 52.204C71.2045 52.665 74.1436 54.198 73.968 54.5774C73.8149 54.9076 73.2234 55.0421 72.9771 54.7977C71.6844 53.5162 69.503 51.8883 67.7558 51.9452ZM72.8156 48.5501C75.9341 48.8443 76.3843 48.4218 76.35 48.9639C76.3377 49.1544 76.5077 49.4393 76.2473 49.5153C75.8762 49.6236 74.4408 50.0041 74.1596 49.7089C73.765 49.2946 73.2997 48.9773 72.8156 48.5501Z" fill="#173F6F"/>
<path d="M48.945 41.8202C50.0559 39.8313 52.2872 38.7393 54.4945 39.7553C56.6712 40.7569 56.1536 41.6723 56.5888 41.0486C58.4688 36.7149 57.4722 35.1352 57.3861 31.0937C55.5362 31.392 53.847 31.3068 52.3451 30.0361C50.2142 32.1205 49.7531 34.8595 49.2209 38.0226C49.0891 38.8065 48.7396 41.0424 48.9445 41.8202H48.945Z" fill="#173F6F"/>
<path d="M65.7607 7.02546C65.876 7.14149 66.5697 6.52182 67.0242 6.43813C67.9783 6.26255 68.2232 6.85861 68.454 6.50282C68.5642 6.33288 68.4973 6.13728 68.3739 5.99148C67.2903 4.71208 65.1795 6.44019 65.7607 7.02546Z" fill="#173F6F"/>
<path d="M69.2548 13.3213C70.9242 13.481 72.9879 12.9368 75.5526 12.563C75.8196 12.524 75.9388 12.3962 75.9915 12.0886C76.0942 11.49 76.0904 10.8909 76.0773 10.2912C76.0579 9.41281 75.8432 9.8913 72.7986 10.2717C67.1567 10.9766 66.1861 10.0854 66.2172 11.1579C66.2869 13.5657 65.5358 13.3013 69.2543 13.3218L69.2548 13.3213ZM68.8827 12.8131C68.3741 12.851 67.703 12.7915 67.031 12.7535C66.9043 12.7463 66.7386 12.7843 66.7706 12.5374C66.9156 11.4238 66.6081 10.9201 66.998 10.9879C68.3817 11.2282 69.4738 10.8447 69.6909 11.2184C70.8056 13.137 71.001 12.8131 68.8827 12.8131ZM75.4726 12.065C75.1782 12.238 74.8707 12.1615 74.591 12.2504C74.4996 12.2796 74.4445 12.1877 74.3918 12.1071C73.5441 10.819 73.4659 10.8057 73.5299 10.6552C73.5752 10.5495 74.282 10.4411 74.3494 10.532C74.7228 11.0362 75.092 11.5455 75.4726 12.065ZM71.6227 10.9063C71.8916 10.7538 71.9928 11.049 72.5429 11.8941C72.6601 12.0743 72.9206 12.2452 72.8372 12.4403C72.7863 12.5599 72.4642 12.5579 72.2617 12.5784C72.1685 12.5877 72.0286 12.735 71.9646 12.5014C71.843 12.0599 71.5633 11.7113 71.3575 11.318C71.1517 10.9248 71.1545 10.9258 71.6227 10.9063Z" fill="#173F6F"/>
<path d="M75.4397 6.25876C75.5871 6.06316 75.2933 5.36544 74.5393 5.13441C72.5411 4.5209 72.2242 6.77729 73.1312 6.16121C74.2327 5.41319 75.2824 6.46771 75.4397 6.25876Z" fill="#173F6F"/>
<path d="M78.5242 43.2313C78.4008 43.5666 80.6439 42.1095 81.218 39.9717C81.6121 38.5034 81.1332 37.0967 80.513 33.1143C80.3745 32.224 80.4809 37.9197 78.5242 43.2313Z" fill="#173F6F"/>
<path d="M58.6201 41.3448C60.4685 37.7736 59.2507 32.6226 59.1165 30.8098C59.0939 30.5064 60.6579 30.2348 61.1683 27.8824C61.862 24.6844 61.7396 23.2227 60.8264 21.6841C60.6249 21.3442 61.0756 21.4392 63.1312 21.2749C63.4152 21.2523 63.646 21.1835 63.6587 21.4043C63.7952 23.7274 63.7303 24.3522 64.7037 24.7532C66.8827 25.6516 69.3641 25.1526 70.6318 23.921C71.5577 23.021 70.8179 21.7262 71.2841 21.775C73.5964 22.0157 74.6127 22.2719 76.7762 24.2228C79.1299 26.3452 78.5347 33.7239 78.0322 37.0091C77.5805 39.9632 76.8299 41.8623 75.4453 45.1075C74.4931 47.3392 74.5995 47.3331 74.4337 47.3279C70.3695 47.197 70.306 46.9033 69.0834 47.2201C69.025 47.235 68.9638 47.2119 68.9261 47.1606C67.3753 45.0515 62.0024 42.7469 58.1515 42.5615C57.7475 42.542 58.2481 42.0656 58.6206 41.3453L58.6201 41.3448ZM76.3297 39.111C76.4922 39.1033 76.6264 38.997 76.6485 38.8579C76.7319 38.3434 77.6074 30.2333 76.7456 30.3457C72.7925 30.8611 66.3251 31.0039 62.8209 31.0352C61.9939 31.0424 63.1124 31.911 62.3848 39.3641C62.3391 39.8313 62.0085 39.8133 76.3297 39.111Z" fill="#173F6F"/>
<path d="M42.1382 23.5088C42.9492 23.4513 43.0876 23.7044 43.0763 27.3372C43.0264 43.537 42.9016 42.753 43.3301 42.7438C43.7125 42.7356 43.616 42.5882 43.5943 38.0077C43.5246 23.3778 43.8048 23.1006 42.5295 23.0611C35.2691 22.8342 42.5098 22.9646 24.5849 22.7597C10.7215 22.6011 10.8524 22.2997 10.866 22.7782C10.8811 23.3193 41.5038 23.5539 42.1382 23.5088Z" fill="#173F6F"/>
<path d="M10.8484 24.2491C10.8027 23.4621 10.1891 23.5237 10.1862 24.1059C10.1236 36.7073 10.1325 40.9166 10.2159 42.3233C10.2578 43.0293 10.8032 42.6216 10.8074 42.4147C10.8168 41.967 10.87 24.6208 10.8484 24.2491Z" fill="#173F6F"/>
<path d="M26.6792 36.0453C30.0356 36.0371 34.858 35.82 38.0444 34.673C39.4939 34.1514 40.4396 33.1801 39.2175 32.219C35.9162 29.6232 22.1215 29.8774 17.1823 30.8538C9.88936 32.2955 12.2709 36.0802 26.6788 36.0458L26.6792 36.0453ZM13.9371 33.0111C14.0204 31.5449 24.1442 29.9492 34.7224 31.398C36.2996 31.6142 40.0746 32.5814 38.7706 33.5784C34.623 36.7482 13.8071 35.3055 13.9371 33.0111Z" fill="#173F6F"/>
<path d="M30.8729 34.9432C33.8365 34.571 33.9151 34.6829 33.7155 34.2906C32.2292 31.3704 32.3865 31.4865 32.0573 31.4603C28.9656 31.2123 29.0334 31.0362 29.2825 31.6723C30.5046 34.7938 30.5187 35.0844 30.8729 34.9432Z" fill="#173F6F"/>
<path d="M25.4038 31.498C26.6273 34.9953 26.5213 35.005 26.8326 35.0015C28.9203 34.9789 29.1967 35.1303 29.0517 34.6991C27.847 31.1212 27.9878 31.2131 27.6407 31.2151C25.3303 31.2295 25.2813 31.1474 25.4038 31.498Z" fill="#173F6F"/>
<path d="M33.9302 31.7046C34.4388 32.6051 34.9036 33.4132 35.447 34.1679C35.5182 34.2665 35.5968 34.2932 35.7028 34.2685C39.5301 33.3891 40.114 32.7951 33.9302 31.7046Z" fill="#173F6F"/>
<path d="M8.39817 22.43C8.89831 19.7034 10.2085 20.2851 13.3237 20.1829C19.6955 19.9744 23.4715 19.7773 29.1976 19.8949C45.2801 20.2245 45.1087 19.7034 45.5717 23.9784C45.8066 26.1476 45.9404 32.5173 45.7784 38.9435C45.6583 43.6991 45.5679 46.0777 43.5292 46.93C40.1879 48.3259 30.6693 47.4947 30.7037 48.0009C30.8445 50.0525 31.1322 50.0863 32.19 51.0156C33.0593 51.779 32.3797 52.7088 30.4795 52.8192C29.0394 52.9029 22.7312 53.214 21.3485 52.5599C20.5347 52.1749 20.6981 51.4099 21.2256 51.0464C22.2023 50.3738 22.4948 49.4359 22.5009 48.2258C22.5051 47.4059 22.612 48.2345 13.3892 47.6462C11.1334 47.5024 8.92515 47.5158 8.56065 45.4848C7.64703 40.3908 7.82363 25.5592 8.39723 22.43H8.39817ZM42.8572 45.2106C42.9443 45.167 42.9509 45.093 42.9495 45.0632C42.9368 44.746 42.5044 44.7573 42.1898 44.7644C29.7952 45.0566 27.8437 45.015 28.2284 45.4098C28.4917 45.6793 42.3019 45.4889 42.8572 45.2106ZM22.4637 50.5972C21.7794 51.5182 17.7016 52.9095 30.6208 52.2606C31.3352 52.2247 32.4565 51.9685 31.9036 51.4643C31.0522 50.6875 31.0946 50.7846 30.8219 50.8241C29.4981 51.0187 26.1214 51.2312 24.4054 50.9786C23.7267 50.8785 23.8176 50.5849 24.4256 50.5566C26.5378 50.4586 28.5661 50.4396 30.7517 50.2789C30.2356 49.5175 30.1781 48.9456 30.213 48.0892C30.229 47.7001 30.4979 47.9085 23.2487 47.8577C22.5475 47.8525 23.4404 49.2818 22.4637 50.5967V50.5972ZM26.4346 44.6156C25.57 44.6248 25.6807 46.0695 26.4794 45.9745C27.3289 45.876 27.1891 44.6099 26.4346 44.6156ZM24.5358 44.8394C24.0762 44.8846 24.0851 45.6121 24.5787 45.6578H24.5886C24.598 45.6578 24.6069 45.6572 24.6159 45.6547C25.1297 45.5217 25.0166 44.7881 24.5358 44.8394ZM10.6591 45.0715C10.9036 45.3343 22.1656 45.4719 22.71 45.2193C22.8037 45.1757 22.8131 45.0997 22.8126 45.0689C22.8093 44.7937 22.3304 44.7295 18.7367 44.7696C17.8508 44.7793 16.9353 44.7896 16.771 44.7562C16.7521 44.7429 16.73 44.7347 16.7055 44.7347C10.7039 44.7347 10.6752 44.8112 10.6318 44.9267C10.6135 44.9749 10.6252 45.035 10.6596 45.072L10.6591 45.0715ZM8.92374 43.1123C8.9925 43.8901 8.92186 43.4106 44.204 43.4178C44.8723 43.4178 44.8733 43.427 44.9213 42.6903C45.2448 37.7504 45.3404 32.8038 45.258 27.8526C45.1572 21.7821 45.323 20.859 40.7865 20.782C33.9456 20.6655 39.2159 20.1279 10.8452 20.7635C8.77916 20.8097 8.65625 21.8509 8.54417 27.5142C8.40901 34.3347 8.68027 40.3641 8.92374 43.1123Z" fill="#173F6F"/>
<path d="M27.5238 16.7792C28.177 16.735 26.362 3.611 33.8786 0.693351C41.9359 -2.43376 44.8628 5.95621 53.6411 7.24433C54.3936 7.35471 56.8491 7.24895 57.7698 7.20428C57.9779 7.19401 58.1588 7.35933 58.1861 7.5842C58.3161 8.65617 58.1423 9.82211 57.7359 10.7524C57.636 10.9814 57.425 11.1282 57.1929 11.1318C43.935 11.332 43.0869 3.35019 36.659 4.8601C33.1604 5.68205 32.268 8.55709 31.7834 12.3301C31.6082 13.6942 31.5253 15.0701 31.5682 16.4506C31.5738 16.637 31.3822 16.9188 31.7533 16.9691C32.6791 17.0949 32.9622 17.9497 33.2292 18.8076C33.3366 19.1531 33.0361 19.2943 32.875 19.0279C31.8536 17.3362 32.5525 17.6884 27.771 17.5483C26.7185 17.5174 27.0321 18.5786 26.4863 18.8518C25.6193 19.2861 26.1543 16.8706 27.5233 16.7787L27.5238 16.7792ZM57.6101 8.11403C57.6181 7.63862 57.4632 7.81677 55.5714 8.00519C55.0826 8.05396 55.7998 8.69981 55.3845 10.4408C56.8585 10.3432 57.5541 11.5122 57.6101 8.11403ZM52.9149 10.2426C54.7732 10.4007 54.8674 10.6035 54.9347 10.1409C55.0195 9.55463 55.0044 8.97192 54.947 8.38767C54.9272 8.18487 54.8792 8.05242 54.6555 8.07603C53.3952 8.20952 53.0364 7.48665 53.0114 8.42874C52.9714 9.93403 52.4439 10.2025 52.9149 10.2426ZM51.9391 10.0819C52.3742 10.2 52.4468 8.39537 52.442 7.98516C52.4392 7.73514 52.4835 7.81625 51.1507 7.52413C50.8931 7.42761 51.0377 8.1782 50.4495 9.45554C50.3059 9.76717 50.3332 9.6455 51.9391 10.0819ZM49.6824 9.42011C50.0648 9.57927 50.4043 7.95795 50.4486 7.48665C50.4731 7.22636 50.4316 7.31107 49.0329 6.71398C48.6524 6.55175 49.0659 7.0595 48.0016 8.7337C48.5851 8.9714 49.1351 9.19216 49.6824 9.42011ZM47.3672 8.43336C47.744 8.65156 48.2276 7.11546 48.3157 6.63184C48.4052 6.14 47.9922 6.36333 46.7894 5.48337C46.2384 8.30347 45.0026 7.0631 47.3672 8.43336ZM45.3662 7.27051C45.4642 7.33622 45.5334 7.3737 45.6134 7.2243C45.913 6.66572 46.1579 6.08507 46.2478 5.42689C46.294 5.08959 46.3561 5.24566 44.6085 4.06484C44.4102 4.79644 44.236 5.47618 43.8686 6.05273C43.725 6.27811 43.7688 6.19904 45.3662 7.27051ZM43.1853 5.78576C43.3143 5.8715 43.3755 5.86739 43.4457 5.70464C43.6831 5.15582 43.9256 4.60956 44.0612 4.01094C44.1592 3.57865 44.2077 3.77323 41.9915 2.27103C41.9208 5.56346 40.532 4.03045 43.1853 5.78576ZM40.8297 4.39342C41.2045 4.55925 41.3896 2.76389 41.4621 2.19761C41.5252 1.70372 39.2544 1.16568 38.8319 1.0938C39.4851 5.32575 38.2103 3.23468 40.8297 4.39342ZM36.6722 3.82868C36.7287 4.18447 36.9732 3.81739 38.2315 3.86051C38.3789 3.86565 38.4566 3.81533 38.4637 3.61357C38.4825 3.07244 38.4731 1.00909 38.0097 1.00139C37.1968 0.987528 36.3835 0.957238 35.5151 1.11126C36.125 1.94142 36.5121 2.82242 36.6722 3.82868ZM35.8434 4.21989C35.9776 4.18601 36.068 4.12645 36.0341 3.92469C35.857 2.87427 35.3508 2.07696 34.6439 1.42854C34.3825 1.18878 32.7573 2.16937 32.1004 2.73514C33.013 3.17564 33.6813 3.90312 34.2163 4.80619C34.4381 5.18046 34.7334 4.50123 35.8434 4.21989ZM33.6431 5.56756C34.2398 5.05725 31.7858 2.98517 31.442 3.42926C30.8608 4.18139 30.3244 4.96945 29.9166 5.92643C30.7073 5.97469 31.441 6.07942 32.1366 6.41827C33.0031 6.84028 32.7587 6.3238 33.6431 5.56756ZM31.5517 9.42987C31.9534 7.45174 32.52 7.44301 32.0895 7.13857C31.3685 6.62876 30.566 6.62671 29.765 6.61182C29.4801 6.60669 29.0491 8.71162 28.9667 9.0864C28.9295 9.25429 28.9008 9.42576 29.0779 9.36929C30.7813 9.05355 31.449 9.93403 31.5517 9.42987ZM31.2734 10.7159C31.3892 10.1604 30.3485 10.0064 29.8587 10.0049C28.5768 10.0008 28.8094 9.81338 28.5297 12.749C28.4609 13.4713 29.0336 12.5113 30.6334 13.1099C31.1316 13.2963 30.8147 12.9148 31.2734 10.7159ZM30.623 16.8408C31.0007 16.8449 30.6522 16.6123 30.8514 14.2153C30.9089 13.5217 29.3063 13.6895 28.6484 13.7388C28.2801 13.7666 28.6371 14.857 28.4256 16.8377C29.1655 16.8377 29.894 16.8331 30.623 16.8408Z" fill="#173F6F"/>
</svg>
