<svg width="307" height="65" viewBox="0 0 307 65" fill="none" xmlns="http://www.w3.org/2000/svg">
<path d="M31 59C46.464 59 59 46.464 59 31C59 15.536 46.464 3 31 3C15.536 3 3 15.536 3 31C3 46.464 15.536 59 31 59Z" fill="#5569DD"/>
<path d="M31 59C46.464 59 59 46.464 59 31C59 15.536 46.464 3 31 3C15.536 3 3 15.536 3 31C3 46.464 15.536 59 31 59Z" stroke="#FAFAFA" stroke-width="5"/>
<path d="M30.1621 28.0532C30.1621 29.3545 29.8635 30.5492 29.2661 31.6372C28.6688 32.7038 27.7515 33.5678 26.5141 34.2292C25.2768 34.8905 23.7408 35.2212 21.9061 35.2212H18.5141V43.2852H13.0421V20.8212H21.9061C23.6981 20.8212 25.2128 21.1305 26.4501 21.7492C27.6875 22.3678 28.6155 23.2212 29.2341 24.3092C29.8528 25.3972 30.1621 26.6452 30.1621 28.0532ZM21.4901 30.8692C22.5355 30.8692 23.3141 30.6238 23.8261 30.1332C24.3381 29.6425 24.5941 28.9492 24.5941 28.0532C24.5941 27.1572 24.3381 26.4638 23.8261 25.9732C23.3141 25.4825 22.5355 25.2372 21.4901 25.2372H18.5141V30.8692H21.4901ZM43.5069 43.2852L38.8349 34.8052H37.5229V43.2852H32.0509V20.8212H41.2349C43.0055 20.8212 44.5095 21.1305 45.7469 21.7492C47.0055 22.3678 47.9442 23.2212 48.5629 24.3092C49.1815 25.3758 49.4909 26.5705 49.4909 27.8932C49.4909 29.3865 49.0642 30.7198 48.2109 31.8932C47.3789 33.0665 46.1415 33.8985 44.4989 34.3892L49.6829 43.2852H43.5069ZM37.5229 30.9332H40.9149C41.9175 30.9332 42.6642 30.6878 43.1549 30.1972C43.6669 29.7065 43.9229 29.0132 43.9229 28.1172C43.9229 27.2638 43.6669 26.5918 43.1549 26.1012C42.6642 25.6105 41.9175 25.3652 40.9149 25.3652H37.5229V30.9332Z" fill="white"/>
<path d="M96.2112 12.7653C96.2112 14.0662 95.9109 15.2604 95.3105 16.3481C94.71 17.4144 93.7877 18.2781 92.5438 18.9392C91.2999 19.6002 89.7557 19.9308 87.9112 19.9308H84.5012V27.992H79V5.53583H87.9112C89.7128 5.53583 91.2356 5.84506 92.4795 6.46351C93.7234 7.08196 94.6563 7.935 95.2783 9.02262C95.9003 10.1102 96.2112 11.3578 96.2112 12.7653ZM87.493 15.5803C88.5439 15.5803 89.3267 15.3351 89.8415 14.8446C90.3562 14.3541 90.6136 13.661 90.6136 12.7653C90.6136 11.8696 90.3562 11.1765 89.8415 10.686C89.3267 10.1955 88.5439 9.9503 87.493 9.9503H84.5012V15.5803H87.493ZM110.592 27.992L105.895 19.515H104.576V27.992H99.0752V5.53583H108.308C110.088 5.53583 111.6 5.84506 112.844 6.46351C114.11 7.08196 115.053 7.935 115.675 9.02262C116.297 10.0889 116.608 11.2832 116.608 12.6054C116.608 14.0982 116.179 15.4311 115.321 16.604C114.485 17.7769 113.241 18.6086 111.59 19.0991L116.801 27.992H110.592ZM104.576 15.6443H107.986C108.994 15.6443 109.745 15.3991 110.238 14.9086C110.753 14.4181 111.01 13.725 111.01 12.8293C111.01 11.9763 110.753 11.3045 110.238 10.814C109.745 10.3235 108.994 10.0783 107.986 10.0783H104.576V15.6443ZM145.637 5.53583V27.992H140.136V14.5247L135.085 27.992H130.646L125.563 14.4927V27.992H120.061V5.53583H126.56L132.898 21.0824L139.171 5.53583H145.637ZM157.764 28.2159C156.113 28.2159 154.633 27.9493 153.325 27.4162C152.016 26.8831 150.966 26.094 150.172 25.049C149.4 24.0041 148.992 22.7458 148.95 21.2744H154.805C154.89 22.1061 155.18 22.7458 155.673 23.1937C156.166 23.6202 156.81 23.8335 157.603 23.8335C158.418 23.8335 159.062 23.6522 159.534 23.2897C160.006 22.9058 160.241 22.3833 160.241 21.7222C160.241 21.1677 160.048 20.7093 159.662 20.3467C159.298 19.9841 158.837 19.6856 158.279 19.451C157.743 19.2164 156.971 18.9499 155.963 18.6513C154.504 18.2034 153.314 17.7556 152.392 17.3077C151.47 16.8599 150.676 16.1988 150.011 15.3244C149.346 14.4501 149.014 13.3091 149.014 11.9016C149.014 9.81167 149.775 8.18024 151.298 7.00732C152.821 5.81307 154.805 5.21594 157.25 5.21594C159.737 5.21594 161.743 5.81307 163.266 7.00732C164.788 8.18024 165.603 9.82234 165.71 11.9336H159.759C159.716 11.2085 159.448 10.6434 158.955 10.2382C158.461 9.81167 157.829 9.59842 157.056 9.59842C156.392 9.59842 155.856 9.77969 155.448 10.1422C155.041 10.4834 154.837 10.9846 154.837 11.6457C154.837 12.3708 155.18 12.9359 155.866 13.3411C156.553 13.7463 157.625 14.1835 159.083 14.6527C160.542 15.1432 161.721 15.6123 162.622 16.0602C163.544 16.508 164.338 17.1585 165.003 18.0115C165.668 18.8645 166 19.9628 166 21.3063C166 22.5859 165.668 23.7482 165.003 24.7931C164.359 25.8381 163.416 26.6698 162.172 27.2883C160.928 27.9067 159.459 28.2159 157.764 28.2159Z" fill="#2A2E45"/>
<path d="M90.4511 55.6785L85.7811 47.3048H84.4697V55.6785H79V33.4963H88.1801C89.95 33.4963 91.4534 33.8017 92.6902 34.4127C93.9483 35.0236 94.8865 35.8662 95.505 36.9405C96.1234 37.9938 96.4326 39.1735 96.4326 40.4796C96.4326 41.9541 96.0061 43.2708 95.1531 44.4294C94.3215 45.588 93.0847 46.4095 91.4427 46.8941L96.6245 55.6785H90.4511ZM84.4697 43.4814H87.8602C88.8625 43.4814 89.6088 43.2392 90.0993 42.7547C90.6111 42.2701 90.867 41.5855 90.867 40.7008C90.867 39.8582 90.6111 39.1946 90.0993 38.7101C89.6088 38.2255 88.8625 37.9833 87.8602 37.9833H84.4697V43.4814ZM116.691 46.5781C116.691 47.0837 116.659 47.6103 116.595 48.158H104.216C104.302 49.2534 104.653 50.0961 105.272 50.6859C105.912 51.2547 106.69 51.539 107.607 51.539C108.972 51.539 109.921 50.9703 110.454 49.8327H116.275C115.977 50.9913 115.433 52.0341 114.644 52.961C113.876 53.8879 112.906 54.6147 111.733 55.1413C110.56 55.6679 109.249 55.9312 107.799 55.9312C106.05 55.9312 104.493 55.5626 103.129 54.8253C101.764 54.088 100.698 53.0347 99.9301 51.6654C99.1624 50.2961 98.7786 48.6952 98.7786 46.8625C98.7786 45.0298 99.1517 43.4288 99.8981 42.0595C100.666 40.6902 101.732 39.637 103.097 38.8996C104.461 38.1623 106.029 37.7937 107.799 37.7937C109.526 37.7937 111.061 38.1518 112.405 38.868C113.748 39.5842 114.793 40.606 115.539 41.9331C116.307 43.2602 116.691 44.8086 116.691 46.5781ZM111.093 45.1561C111.093 44.2292 110.773 43.492 110.134 42.9443C109.494 42.3965 108.694 42.1227 107.735 42.1227C106.818 42.1227 106.039 42.386 105.4 42.9127C104.781 43.4393 104.397 44.1872 104.248 45.1561H111.093ZM125.046 40.5428C125.579 39.7212 126.315 39.0576 127.253 38.5521C128.191 38.0465 129.29 37.7937 130.548 37.7937C132.019 37.7937 133.352 38.1623 134.546 38.8996C135.74 39.637 136.679 40.6902 137.361 42.0595C138.065 43.4288 138.417 45.0192 138.417 46.8309C138.417 48.6425 138.065 50.2435 137.361 51.6338C136.679 53.0031 135.74 54.0669 134.546 54.8253C133.352 55.5626 132.019 55.9312 130.548 55.9312C129.311 55.9312 128.213 55.6785 127.253 55.1729C126.315 54.6673 125.579 54.0143 125.046 53.2138V64.0837H119.577V38.0465H125.046V40.5428ZM132.851 46.8309C132.851 45.4827 132.467 44.4294 131.699 43.671C130.953 42.8916 130.025 42.5019 128.917 42.5019C127.829 42.5019 126.901 42.8916 126.134 43.671C125.387 44.4504 125.014 45.5143 125.014 46.8625C125.014 48.2106 125.387 49.2745 126.134 50.0539C126.901 50.8333 127.829 51.2231 128.917 51.2231C130.004 51.2231 130.932 50.8333 131.699 50.0539C132.467 49.2534 132.851 48.179 132.851 46.8309ZM149.411 55.9312C147.662 55.9312 146.084 55.5626 144.677 54.8253C143.29 54.088 142.192 53.0347 141.382 51.6654C140.593 50.2961 140.198 48.6952 140.198 46.8625C140.198 45.0508 140.604 43.4604 141.414 42.0911C142.224 40.7008 143.333 39.637 144.741 38.8996C146.148 38.1623 147.726 37.7937 149.475 37.7937C151.223 37.7937 152.801 38.1623 154.209 38.8996C155.616 39.637 156.725 40.7008 157.535 42.0911C158.345 43.4604 158.751 45.0508 158.751 46.8625C158.751 48.6741 158.335 50.2751 157.503 51.6654C156.693 53.0347 155.573 54.088 154.145 54.8253C152.737 55.5626 151.159 55.9312 149.411 55.9312ZM149.411 51.2547C150.455 51.2547 151.34 50.8755 152.065 50.1171C152.812 49.3587 153.185 48.2738 153.185 46.8625C153.185 45.4511 152.822 44.3662 152.097 43.6078C151.394 42.8495 150.519 42.4703 149.475 42.4703C148.408 42.4703 147.523 42.8495 146.82 43.6078C146.116 44.3452 145.764 45.43 145.764 46.8625C145.764 48.2738 146.105 49.3587 146.788 50.1171C147.491 50.8755 148.366 51.2547 149.411 51.2547ZM167.122 40.9851C167.762 40.0162 168.561 39.2578 169.521 38.7101C170.481 38.1413 171.547 37.8569 172.72 37.8569V43.5762H171.216C169.852 43.5762 168.828 43.8712 168.146 44.461C167.463 45.0298 167.122 46.0409 167.122 47.4944V55.6785H161.652V38.0465H167.122V40.9851ZM185.282 51.0967V55.6785H182.499C180.516 55.6785 178.969 55.2045 177.861 54.2565C176.752 53.2875 176.198 51.7181 176.198 49.5483V42.5335H174.023V38.0465H176.198V33.7491H181.667V38.0465H185.25V42.5335H181.667V49.6115C181.667 50.1381 181.795 50.5173 182.051 50.7491C182.307 50.9808 182.734 51.0967 183.331 51.0967H185.282ZM191.079 36.2138C190.12 36.2138 189.331 35.9399 188.712 35.3922C188.116 34.8234 187.817 34.1283 187.817 33.3067C187.817 32.4641 188.116 31.7689 188.712 31.2212C189.331 30.6524 190.12 30.368 191.079 30.368C192.018 30.368 192.786 30.6524 193.382 31.2212C194.001 31.7689 194.31 32.4641 194.31 33.3067C194.31 34.1283 194.001 34.8234 193.382 35.3922C192.786 35.9399 192.018 36.2138 191.079 36.2138ZM193.798 38.0465V55.6785H188.328V38.0465H193.798ZM208.638 37.8569C210.727 37.8569 212.39 38.531 213.628 39.8792C214.885 41.2063 215.515 43.039 215.515 45.3773V55.6785H210.077V46.1041C210.077 44.9244 209.767 44.008 209.15 43.355C208.531 42.702 207.699 42.3755 206.655 42.3755C205.609 42.3755 204.777 42.702 204.16 43.355C203.541 44.008 203.232 44.9244 203.232 46.1041V55.6785H197.762V38.0465H203.232V40.3848C203.786 39.6054 204.533 38.9944 205.471 38.5521C206.409 38.0886 207.464 37.8569 208.638 37.8569ZM226.096 37.7937C227.355 37.7937 228.452 38.0465 229.391 38.5521C230.351 39.0576 231.086 39.7212 231.598 40.5428V38.0465H237.068V55.6469C237.068 57.2689 236.737 58.7329 236.076 60.039C235.436 61.3662 234.445 62.4195 233.101 63.1989C231.779 63.9783 230.127 64.368 228.144 64.368C225.5 64.368 223.357 63.7466 221.714 62.5037C220.072 61.282 219.134 59.6177 218.899 57.5112H224.305C224.476 58.1853 224.881 58.7119 225.521 59.0911C226.16 59.4913 226.949 59.6915 227.888 59.6915C229.018 59.6915 229.914 59.3649 230.575 58.7119C231.257 58.0799 231.598 57.0582 231.598 55.6469V53.1506C231.065 53.9721 230.33 54.6463 229.391 55.1729C228.452 55.6785 227.355 55.9312 226.096 55.9312C224.625 55.9312 223.293 55.5626 222.098 54.8253C220.904 54.0669 219.955 53.0031 219.251 51.6338C218.569 50.2435 218.228 48.6425 218.228 46.8309C218.228 45.0192 218.569 43.4288 219.251 42.0595C219.955 40.6902 220.904 39.637 222.098 38.8996C223.293 38.1623 224.625 37.7937 226.096 37.7937ZM231.598 46.8625C231.598 45.5143 231.214 44.4504 230.447 43.671C229.7 42.8916 228.783 42.5019 227.696 42.5019C226.608 42.5019 225.681 42.8916 224.913 43.671C224.166 44.4294 223.793 45.4827 223.793 46.8309C223.793 48.179 224.166 49.2534 224.913 50.0539C225.681 50.8333 226.608 51.2231 227.696 51.2231C228.783 51.2231 229.7 50.8333 230.447 50.0539C231.214 49.2745 231.598 48.2106 231.598 46.8625ZM257.751 51.0967V55.6785H254.968C252.985 55.6785 251.439 55.2045 250.33 54.2565C249.222 53.2875 248.667 51.7181 248.667 49.5483V42.5335H246.492V38.0465H248.667V33.7491H254.137V38.0465H257.719V42.5335H254.137V49.6115C254.137 50.1381 254.264 50.5173 254.52 50.7491C254.776 50.9808 255.203 51.0967 255.8 51.0967H257.751ZM268.922 55.9312C267.174 55.9312 265.596 55.5626 264.188 54.8253C262.802 54.088 261.704 53.0347 260.894 51.6654C260.105 50.2961 259.71 48.6952 259.71 46.8625C259.71 45.0508 260.115 43.4604 260.926 42.0911C261.736 40.7008 262.845 39.637 264.252 38.8996C265.66 38.1623 267.238 37.7937 268.986 37.7937C270.734 37.7937 272.313 38.1623 273.72 38.8996C275.128 39.637 276.236 40.7008 277.047 42.0911C277.857 43.4604 278.262 45.0508 278.262 46.8625C278.262 48.6741 277.846 50.2751 277.015 51.6654C276.204 53.0347 275.085 54.088 273.656 54.8253C272.249 55.5626 270.67 55.9312 268.922 55.9312ZM268.922 51.2547C269.967 51.2547 270.852 50.8755 271.577 50.1171C272.324 49.3587 272.697 48.2738 272.697 46.8625C272.697 45.4511 272.334 44.3662 271.609 43.6078C270.905 42.8495 270.031 42.4703 268.986 42.4703C267.92 42.4703 267.035 42.8495 266.331 43.6078C265.628 44.3452 265.276 45.43 265.276 46.8625C265.276 48.2738 265.617 49.3587 266.299 50.1171C267.003 50.8755 267.878 51.2547 268.922 51.2547ZM289.289 55.9312C287.54 55.9312 285.962 55.5626 284.555 54.8253C283.168 54.088 282.071 53.0347 281.26 51.6654C280.471 50.2961 280.076 48.6952 280.076 46.8625C280.076 45.0508 280.481 43.4604 281.292 42.0911C282.103 40.7008 283.211 39.637 284.619 38.8996C286.026 38.1623 287.604 37.7937 289.353 37.7937C291.101 37.7937 292.679 38.1623 294.087 38.8996C295.494 39.637 296.602 40.7008 297.413 42.0911C298.224 43.4604 298.629 45.0508 298.629 46.8625C298.629 48.6741 298.213 50.2751 297.381 51.6654C296.57 53.0347 295.451 54.088 294.023 54.8253C292.615 55.5626 291.037 55.9312 289.289 55.9312ZM289.289 51.2547C290.333 51.2547 291.219 50.8755 291.943 50.1171C292.69 49.3587 293.063 48.2738 293.063 46.8625C293.063 45.4511 292.7 44.3662 291.975 43.6078C291.272 42.8495 290.397 42.4703 289.353 42.4703C288.286 42.4703 287.401 42.8495 286.698 43.6078C285.994 44.3452 285.642 45.43 285.642 46.8625C285.642 48.2738 285.983 49.3587 286.666 50.1171C287.369 50.8755 288.244 51.2547 289.289 51.2547ZM307 32.2956V55.6785H301.53V32.2956H307Z" fill="#5569DD"/>
</svg>
