<svg width="111" height="97" viewBox="0 0 111 97" fill="none" xmlns="http://www.w3.org/2000/svg">
<path d="M90.6253 71.9174C90.7477 74.0694 88.7698 76.0075 86.5127 75.9053C84.5912 75.8185 82.6876 74.1443 82.7292 71.9679C82.826 66.891 90.6063 66.6326 90.6253 71.9174Z" fill="#173F6F"/>
<path d="M67.6773 14.8535C62.0294 15.2985 61.4697 15.0626 61.4935 14.2802C61.7579 5.63665 59.3124 8.67626 67.4628 7.86585C67.9446 7.81773 68.155 8.01736 68.1597 8.51643C68.2203 14.598 68.6701 14.7757 67.6767 14.8541L67.6773 14.8535Z" fill="#173F6F"/>
<path d="M110.365 34.5029C104.717 34.9473 104.157 34.7121 104.181 33.9296C104.445 25.2861 102 28.3257 110.15 27.5153C110.632 27.4671 110.842 27.6668 110.847 28.1658C110.908 34.2474 111.358 34.4251 110.364 34.5035L110.365 34.5029Z" fill="#173F6F"/>
<path d="M53.2331 36.1028C48.6654 36.1011 48.7955 29.2946 53.3097 29.2269C55.0749 29.2001 56.6583 30.8911 56.6357 32.7353C56.6132 34.5896 55.0838 36.1034 53.2331 36.1028Z" fill="#173F6F"/>
<path d="M85.6101 62.6902C85.2976 45.3021 85.3368 45.6609 85.7801 45.7031C86.0439 45.7281 86.1151 45.8962 86.1597 47.4772C86.7384 68.2264 86.5845 67.4213 86.0777 67.4118C85.6618 67.4041 85.6927 67.2971 85.6101 62.6902Z" fill="#173F6F"/>
<path d="M94.3625 11.9875C93.9174 11.4492 94.1497 11.4207 96.373 8.43458C96.8959 7.73231 97.0598 8.2807 99.0419 11.2496C99.3633 11.7315 99.1197 11.8384 97.2048 14.3659C96.5982 15.1662 96.1906 14.2001 94.3619 11.9869L94.3625 11.9875Z" fill="#173F6F"/>
<path d="M88.7263 10.1427C93.865 10.1427 93.8941 10.0441 93.8863 10.5022C93.8792 10.9282 93.8964 10.8058 86.0966 10.7784C84.3985 10.7725 84.3706 10.5449 84.4033 11.6322C84.4895 14.4698 84.4021 17.3068 84.3884 20.1432C84.3873 20.4231 84.5085 20.8984 84.086 20.8895C83.7177 20.8818 83.7593 20.8984 83.7153 10.7481C83.7117 9.86584 83.6357 10.1178 88.7268 10.1178L88.7263 10.1427Z" fill="#173F6F"/>
<path d="M79.7755 19.897C79.7274 20.2374 79.2527 20.2219 79.2194 19.8768C79.1891 19.5601 79.1428 12.002 79.141 10.9772C79.141 10.5333 79.0251 10.3771 78.5623 10.4074C76.7656 10.5256 71.1986 10.4044 70.1255 10.2862C69.595 10.2279 69.6556 9.75026 70.1255 9.72531C70.7625 9.69144 71.4012 9.63856 72.0381 9.6445C79.8468 9.71758 79.7702 9.48468 79.7714 10.4537C79.7714 10.4662 79.8243 19.547 79.7749 19.8964L79.7755 19.897Z" fill="#173F6F"/>
<path d="M57.8272 32.536C57.5372 32.4748 57.5129 32.0845 57.8206 32.018C58.9537 31.7732 63.4548 31.7779 64.8267 31.7619C67.6762 31.7286 67.7107 31.5552 67.6744 31.9711C67.6037 32.7945 67.7362 32.5462 62.6355 32.5462C62.6355 32.5777 58.0969 32.5931 57.8272 32.536Z" fill="#173F6F"/>
<path d="M96.2314 31.1959C98.2877 31.0283 100.348 31.2452 102.405 31.1406C102.677 31.1269 103.179 31.0081 103.19 31.4858C103.204 32.0015 103.215 31.831 94.3141 32.1185C94.0871 32.1257 93.8471 32.1322 93.8578 31.8298C93.8857 31.0194 94.4798 31.1959 96.2314 31.1959Z" fill="#173F6F"/>
<path d="M97.9764 70.3314C97.9621 71.1394 97.6057 71.0616 95.0782 71.3628C94.4835 71.4335 94.4413 70.8613 94.9873 70.7413C96.9414 70.3118 97.1494 70.4853 97.1458 69.8335C97.1006 61.8215 97.4898 47.3233 97.3122 46.4695C97.2706 46.2693 97.3763 46.1101 97.5855 46.0685C98.5129 45.8855 104.574 45.6871 105.927 45.6764C106.539 45.6716 106.339 45.7102 106.587 40.095C106.604 39.6993 106.666 39.2644 107.095 39.2918C107.56 39.3215 107.529 39.8568 107.506 40.5056C107.287 46.8207 107.539 46.5789 106.256 46.6412C98.1885 47.0369 98.1808 46.4784 98.1933 47.35C98.2319 49.9899 98.0221 67.6916 97.9764 70.3302V70.3314Z" fill="#173F6F"/>
<path d="M94.1311 71.4476C94.1204 73.2817 91.3879 73.2389 91.4182 71.4351C91.4473 69.6764 94.1418 69.6414 94.1311 71.4476Z" fill="#173F6F"/>
<path d="M108.509 37.4263C108.52 39.2847 105.79 39.078 105.815 37.3395C105.839 35.6516 108.498 35.5945 108.509 37.4263Z" fill="#173F6F"/>
<path d="M52.5289 20.1015C52.5289 11.9434 52.2681 11.9261 53.1153 11.8691C55.7562 11.692 56.6451 11.3308 56.7158 11.9434C56.7621 12.3456 56.411 12.3961 56.1121 12.4264C53.3328 12.7039 53.3137 12.4846 53.2918 13.112C53.006 21.4127 53.5781 24.7506 52.785 24.7399C52.4897 24.7357 52.4457 24.4791 52.4457 24.2355C52.4445 20.1003 52.4006 20.1003 52.5289 20.1015Z" fill="#173F6F"/>
<path d="M53.8006 26.8894C53.7929 28.6861 51.0598 28.7086 51.0723 26.9346C51.0848 25.1444 53.8083 25.0357 53.8006 26.8894Z" fill="#173F6F"/>
<path d="M60.0995 11.7828C60.0924 13.6472 57.5489 13.4832 57.5804 11.8624C57.5928 11.2255 58.2874 10.5464 58.9332 10.5387C59.5737 10.5309 60.1019 11.096 60.0995 11.7828Z" fill="#173F6F"/>
<path d="M65.9521 3.9433C65.9652 4.40316 65.4364 4.33186 65.4061 3.91953C65.2534 1.8145 65.3717 1.72597 65.2611 1.12173C65.0574 0.00594166 66.4423 0.628005 82.9391 0.144971C84.8315 0.0897157 96.4427 0 96.4552 0C97.3375 0.00178241 97.1242 0.175272 97.1034 3.18577C97.1004 3.588 97.1777 3.97657 96.7897 3.99261C96.4189 4.00806 96.3399 3.82863 96.356 1.5103C96.3589 1.12173 96.2247 1.0136 95.8414 1.0136C73.1584 1.00944 65.9165 1.17877 65.9165 1.17877C65.9165 1.17877 65.9159 2.62847 65.9521 3.9433Z" fill="#173F6F"/>
<path d="M97.8759 6.07709C97.8527 7.88624 95.1916 7.68066 95.251 6.04441C95.311 4.3927 97.8979 4.33507 97.8759 6.07709Z" fill="#173F6F"/>
<path d="M65.0712 4.61769C66.7199 4.67651 66.632 7.16773 64.9969 7.12792C63.2912 7.08633 63.4237 4.55946 65.0712 4.61769Z" fill="#173F6F"/>
<path d="M89.5811 24.2504C82.0076 17.0417 67.1161 21.5637 67.9687 34.2456C68.179 37.3809 69.5586 40.4502 72.0136 42.6532C72.2346 42.3259 72.4521 42.0062 72.6624 41.6985C68.8415 38.0261 67.9538 31.9344 70.6322 27.438C72.8941 23.6408 77.6252 21.1799 82.8109 22.1578C91.2298 23.7466 94.4292 33.1185 90.6939 39.389C88.6096 42.8879 84.4287 45.2526 79.7279 44.8367C80.2151 45.1433 80.7575 45.5728 81.1395 45.9174C81.2263 45.9174 81.3136 45.9174 81.4016 45.9162C88.997 45.8236 93.2867 39.8239 93.3598 32.5826C93.38 30.5845 92.2713 26.8123 89.5799 24.2504H89.5811Z" fill="#173F6F"/>
<path d="M83.2576 25.9506C82.0788 25.2787 76.9692 24.8485 74.1096 28.9249C71.7575 32.2782 72.285 36.3338 74.5345 38.9741C74.6842 38.7709 74.8428 38.5731 75.0098 38.3847C74.3307 37.5809 73.7983 36.5934 73.5096 35.42C72.1347 29.8298 77.403 24.8752 82.7318 26.5709C91.0361 29.2142 88.8276 41.2734 80.7361 41.0251C80.4325 41.0322 80.1194 41.0162 79.8021 40.977C79.6963 41.2051 79.5781 41.4368 79.451 41.6715C80.1437 41.7666 80.8739 41.7755 81.635 41.6846C90.0052 40.6811 91.4799 28.673 83.2576 25.9506Z" fill="#173F6F"/>
<path d="M27.5452 43.7847C19.4905 43.7847 15.7688 40.9994 17.0396 40.618C21.0976 39.3982 22.3144 33.2174 20.1232 29.1428C18.4852 26.0972 15.3683 27.3218 15.7117 26.9112C17.2149 25.1133 20.0965 23.9999 20.1131 23.9999C22.0863 23.9999 25.2643 25.9 26.2678 26.4858C27.9569 27.4727 28.7757 27.9533 30.6389 27.6432C33.1729 27.2213 35.8625 26.6623 35.4009 24.1835C35.1704 22.9465 37.8196 24.9422 39.0281 27.1839C39.3079 27.7032 40.0268 29.1095 39.4553 29.258C34.1841 30.6269 30.8724 31.4855 25.1942 31.4855C22.8771 31.4855 21.763 31.1801 22.0851 38.5189C22.1884 40.8752 23.0898 41.5395 28.7204 41.5395C32.8835 41.5395 36.5101 40.7 38.9235 39.9484C40.6192 39.4202 38.0775 43.7835 27.5458 43.7835L27.5452 43.7847Z" fill="#173F6F"/>
<path d="M41.8869 89.0521C44.5469 88.4645 44.7108 88.7217 44.4803 86.7575C44.2433 84.7339 43.7478 86.0327 36.2355 85.7237C34.9183 85.6697 33.6141 85.6536 32.3587 86.1236C31.824 86.3238 31.3629 83.5516 23.3433 81.5873C14.1852 79.3445 13.7331 81.3954 13.4645 80.3331C12.3725 76.0197 5.29751 74.507 2.55556 79.8756C1.31856 82.2973 1.78496 85.1997 3.89415 86.991C4.51325 87.5168 5.03312 88.026 5.0147 88.897C5.00282 89.4721 6.34081 92.0133 9.06137 93.1635C17.3074 96.6481 27.2723 95.3084 30.0511 93.0566C30.3636 92.8035 32.3884 92.8563 33.43 93.2004C37.1766 94.4379 38.956 96.9036 39.8431 96.3368C40.3932 95.9857 40.9678 95.6601 41.3884 95.1402C41.7972 94.6358 41.7188 95.2691 42.8821 93.93C43.4067 93.3263 43.7988 93.5141 44.3561 92.3412C45.0133 90.9569 44.1351 90.6658 41.8869 89.0521ZM43.6848 86.8544C43.6949 87.0837 43.7567 87.3261 43.6996 87.5376C43.6242 87.8187 41.6801 88.0884 40.9755 88.2928C40.5935 88.4039 40.698 88.2007 38.4492 86.6803C43.2588 86.7724 43.6563 86.205 43.6848 86.8544ZM4.86379 85.8384C2.19789 82.9283 3.65828 77.8829 8.27533 77.77C9.69888 77.7349 11.795 78.5453 12.3992 80.3141C12.5846 80.8571 12.5882 80.9023 12.0576 81.0164C9.55332 81.5535 7.58553 82.9515 5.9166 84.8325C5.20661 85.6328 5.37356 86.3945 4.86379 85.8384ZM27.3763 93.0132C12.7474 96.7384 -1.71154 88.9505 10.7511 82.5558C15.6777 80.0277 27.1594 83.0204 30.6904 86.0855C32.25 87.4396 31.2536 88.6635 30.0677 91.0656C29.5069 92.2016 28.5105 92.7244 27.3763 93.0132ZM43.5036 91.8796C43.2481 92.4517 43.0966 92.5373 42.6159 92.1571C41.7806 91.4958 38.5098 89.8559 37.6335 89.6694C36.9437 89.5226 36.7797 90.074 37.321 90.3996C42.8441 93.7208 42.6979 93.0483 41.755 93.9169C41.1359 94.4867 40.66 93.072 37.0073 91.5243C36.2658 91.21 35.3567 91.2165 35.8725 91.939C36.1939 92.3894 41.0088 94.4415 40.5584 94.8461C38.8859 96.3493 39.9708 94.9543 34.6105 92.5052C31.0124 90.8612 30.4563 92.6953 31.4788 90.8589C33.6141 87.0225 32.0094 86.9827 32.9576 86.7718C34.9545 86.3274 36.7542 86.6464 38.4231 87.9214C43.0217 91.4352 43.8559 91.0924 43.5036 91.8802V91.8796Z" fill="#173F6F"/>
<path d="M74.1077 50.9062C74.3245 51.1028 74.5586 50.9151 74.7244 50.7725C76.1265 49.5658 78.7877 46.7383 77.8495 44.9933C77.5721 44.4776 77.0528 44.2946 76.5323 44.0581C79.1044 39.9182 79.7413 38.8737 78.2922 38.2071C77.2168 37.7127 76.038 38.9848 75.3714 39.9633C73.6003 42.5615 68.7153 49.4226 67.9696 52.322C67.7842 53.0433 66.8716 51.3928 56.9246 63.4769C55.9437 61.8365 54.3947 59.7434 52.7983 58.6912C51.3236 57.7186 52.7555 55.585 49.5585 53.3445C46.3436 51.0915 44.5386 51.8265 44.0995 51.3589C43.2137 50.4154 39.9251 48.3686 36.4191 47.8992C32.6309 47.3924 32.3582 47.8036 32.3421 47.0104C32.3207 45.9831 31.7789 45.5405 32.6689 45.4045C35.9319 44.9048 40.3731 43.2626 41.5079 40.2408C42.1133 38.6283 42.5078 36.9618 42.4734 35.2269C42.3599 29.4655 41.9832 25.9767 38.0874 22.8254C32.9903 18.7015 21.7736 19.6581 15.9053 24.0684C13.013 26.2417 13.4895 27.9362 12.9643 28.1643C11.1652 28.945 9.80883 29.9182 9.53493 33.3898C9.31808 36.1418 10.7589 38.1732 12.2668 38.9557C13.3309 39.5082 12.7255 39.9128 14.8649 41.9674C16.2909 43.3368 17.1845 44.2613 22.2441 45.2969C22.9226 45.4359 22.5798 45.6475 22.9993 47.1655C23.1199 47.6028 23.2298 47.6396 19.7137 47.8814C17.1256 48.0597 14.6921 49.0733 12.0749 49.1974C10.1689 49.2877 8.42033 50.1873 6.74962 51.0999C3.75575 52.7355 3.65772 57.6039 5.17218 60.6601C5.73839 61.8021 2.39102 59.5937 0.640099 71.641C0.237867 74.4085 -0.608779 79.0921 0.710801 80.7545C1.13502 81.2892 1.55031 81.1935 1.40653 80.4735C0.891413 77.8824 0.94548 77.0774 1.78737 71.395C2.27278 68.116 3.21449 64.5565 5.74196 62.3089C6.56009 61.5816 5.95109 62.6024 8.85702 63.329C11.5865 64.0111 14.0848 62.9398 14.3522 63.1347C14.6166 63.3278 14.5037 63.8346 14.5388 64.2054C14.755 66.491 15.3171 68.7315 15.3795 71.0385C15.5458 77.1617 13.1996 78.5437 14.004 79.082C14.4918 79.4088 15.7371 78.2942 16.4257 75.4839C17.3407 71.7485 16.3188 67.5878 15.4751 63.0747C15.3117 62.1995 17.311 62.477 18.1594 59.8194C19.1748 56.6378 19.3032 51.9649 16.3414 49.8658C16.7953 49.7524 17.1191 49.5676 17.4976 49.523C23.2167 48.8505 23.1104 48.5587 23.2316 49.3679C23.5257 51.3381 23.417 53.395 24.2719 53.663C27.469 54.6671 30.6453 53.8905 32.2471 52.5181C33.1472 51.7469 32.9113 51.429 32.6653 49.0156C35.3378 49.0156 37.9377 49.0685 40.2222 50.4362C42.7692 51.9614 44.0835 52.3309 45.4429 56.5457C47.0839 61.6327 46.4095 72.1419 44.9212 76.3287C44.1257 78.5663 43.4578 80.8478 42.6219 83.0722C42.4205 83.6081 42.9641 84.1185 43.2243 83.7673C45.1208 81.2102 46.2141 78.2603 47.0191 75.1773C47.2888 75.2355 47.1991 75.3526 48.6215 77.0708C50.5637 79.4171 51.7894 79.887 54.5076 79.8633C56.2586 79.8478 60.1389 85.2301 68.8347 72.5976C70.074 70.7973 77.6232 61.1265 75.4421 55.8981C75.3387 55.6498 75.486 55.5957 75.6477 55.4971C77.2096 54.5459 78.2149 51.7142 75.3048 54.515C74.7416 55.0574 74.8866 54.5037 73.8801 53.6475C71.538 51.6554 68.7111 52.7159 69.209 51.8247C71.6034 47.5386 78.7758 36.1044 78.0212 39.5569C78.0076 39.6199 77.9767 39.6817 77.9416 39.7358C76.8205 41.4713 76.0071 43.3725 75.0393 45.1912C73.9965 47.15 73.2515 48.3139 73.2467 48.9419C73.2378 50.1344 74.8622 47.5166 76.1022 44.9707C76.1515 44.8697 76.1236 44.6428 76.3719 44.7158C76.9292 44.8798 77.2809 45.5179 77.1182 46.0865C76.606 47.8767 73.4909 50.3465 74.1077 50.905V50.9062ZM16.9028 52.6583C17.6705 55.0022 17.7471 57.352 16.8298 59.678C16.0574 61.6363 12.6025 61.8888 10.4986 61.9423C5.16802 62.0772 4.76222 54.2981 7.48813 52.5965C11.9638 49.8023 16.1976 50.5063 16.9028 52.6583ZM40.8727 30.5742C41.0557 30.7203 41.654 33.5431 41.4514 36.4478C41.3742 37.5523 41.2708 37.6153 40.2346 37.9177C35.8582 39.1963 29.2372 40.621 24.2107 39.447C23.3219 39.2391 23.7455 34.3636 23.8537 33.4575C23.9214 32.8901 25.0336 33.3619 26.3158 33.3393C35.0692 33.1842 40.5834 30.3436 40.8722 30.5748L40.8727 30.5742ZM31.5953 21.4339C32.0884 21.4993 32.3986 21.6484 32.6089 22.1588C33.8898 25.2685 34.7145 25.4794 29.5627 26.0581C28.6299 26.1627 27.8332 25.2721 26.0692 24.3209C23.2708 22.8112 22.7961 22.8902 21.7956 22.4701C25.8238 21.2902 29.1581 21.1113 31.5953 21.4339ZM10.845 36.5132C9.33174 33.4343 10.7921 30.046 12.3327 29.3158C14.2934 28.3866 15.733 30.7708 15.7906 33.2882C15.894 37.7716 12.3399 39.5552 10.845 36.5132ZM14.6748 28.7056C18.9912 27.4918 21.4848 34.4569 17.1482 38.6592C16.2113 39.567 14.1514 38.803 13.6749 38.6919C17.3211 37.2119 17.4429 30.7156 14.6748 28.7056ZM14.2108 39.8909C15.0444 39.9099 19.1118 40.9258 20.252 34.8668C20.3589 34.297 20.2817 33.6958 20.3102 33.1082C20.3732 31.8195 19.9294 30.6395 19.3483 29.5594C18.2616 27.5387 16.484 27.8524 14.0712 27.8524C14.2375 27.3106 14.6421 26.8151 15.0408 26.3397C16.3218 24.8104 18.0436 23.9246 19.8355 23.1564C20.3358 22.9419 22.909 23.6216 24.7425 24.6072C28.0946 26.4099 28.4576 27.1127 30.4961 26.7717C31.6345 26.5816 32.7741 26.3998 33.812 25.8466C34.5523 25.4521 34.689 25.1687 34.5369 24.3488C34.3764 23.4837 34.1055 22.662 33.4537 21.8629C39.7546 23.473 41.2263 29.7121 40.4771 29.9052C34.6729 31.3994 31.0493 32.4796 24.1341 32.3572C23.5518 32.3471 23.2607 32.7303 23.1443 33.5181C22.9019 35.1597 22.8971 36.8209 22.9702 38.4792C23.0207 39.6253 23.2274 40.1315 24.4223 40.3222C33.2096 41.7244 41.0653 38.232 41.0777 38.2397C41.228 38.3301 40.8959 40.9603 38.2461 42.4748C36.5516 43.4432 32.9636 44.5293 28.8611 44.6445C18.3127 44.9404 16.1578 41.6816 14.2102 39.8914L14.2108 39.8909ZM31.3576 51.6168C29.6715 52.7872 27.8249 53.3611 25.7603 52.947C24.3284 52.6595 25.0265 51.4064 23.8097 45.6629C31.1455 46.3212 31.0635 45.0967 31.1229 46.5149C31.2935 50.577 32.1336 51.0785 31.3576 51.6168ZM45.7031 53.155C47.2425 53.8537 48.9079 54.4235 49.7337 56.0496C51.0878 58.7173 50.4604 61.0018 49.9066 62.8751C49.6612 63.7057 49.1758 64.358 48.4302 64.8179C47.0625 65.6616 49.0356 60.2656 45.7031 53.155ZM47.9281 74.1827C47.5318 73.7745 47.3471 73.2434 47.4463 72.6041C48.3108 67.0584 47.498 66.4833 48.2912 66.3395C50.8038 65.8838 52.1804 62.6244 52.3925 60.0791C53.5992 61.2959 54.57 62.5703 55.5432 63.8435C56.1142 64.591 56.0851 64.5761 55.5331 65.3639C52.8743 69.1587 50.4639 74.7852 53.3734 78.391C51.6373 78.1189 50.8091 77.1528 47.9281 74.1827ZM69.9641 54.1514C70.6438 54.3165 71.3372 54.4098 71.9699 54.7704C73.4024 55.5868 74.0845 56.8345 73.8926 58.4897C73.6246 60.8009 72.8386 62.9363 71.6836 64.951C69.796 68.2437 63.1458 78.8223 59.1443 79.1747C57.7498 79.2971 56.3483 79.1515 55.3246 77.9656C55.1582 77.7731 53.6146 76.8106 53.7828 74.5077C53.9777 71.8335 54.9217 69.5936 56.1605 67.4755C58.265 63.8774 63.8035 57.6098 66.3423 55.1495C67.3357 54.1864 68.5762 53.8145 69.9641 54.1525V54.1514Z" fill="#173F6F"/>
<path d="M35.3101 28.5356C37.1157 27.5398 38.4406 28.8933 38.6878 28.4851C38.7561 28.3716 38.762 28.2314 38.6842 28.1108C37.1335 25.7164 33.7469 27.6456 34.587 28.6592C34.8365 28.9604 35.0807 28.6621 35.3101 28.5356Z" fill="#173F6F"/>
<path d="M25.3835 29.5622C27.0447 28.2635 28.1718 29.7036 28.4813 29.0138C28.7986 28.3068 27.5533 27.8779 26.7577 27.8125C24.2249 28.062 23.5 31.0345 25.3835 29.5622Z" fill="#173F6F"/>
<path d="M35.2547 26.3808C35.2414 26.3674 35.1513 26.389 35.2173 26.448L35.2547 26.3808Z" fill="#173F6F"/>
<path d="M39.8085 35.1784C40.2405 34.9057 40.193 34.4637 40.2702 34.059C39.8834 31.8126 38.0927 33.0959 38.9916 34.9669C39.1657 35.3287 39.4717 35.3911 39.8085 35.1784Z" fill="#173F6F"/>
<path d="M26.2731 35.5956C26.3688 37.9733 28.2338 36.7726 27.642 35.1922C27.5517 34.9498 27.4857 34.6717 27.1275 34.6171C26.5815 34.5339 26.2452 34.9022 26.2731 35.5956Z" fill="#173F6F"/>
<path d="M82.1067 48.5197C82.0598 49.7353 80.8863 51.1469 79.2198 53.4035C78.4712 54.4171 76.8581 53.2532 77.2175 52.6965C77.3072 52.558 77.4671 52.6109 77.5782 52.6537C78.3399 52.9484 78.754 52.6424 79.092 51.9401C80.0367 49.9795 81.8643 48.5714 80.6843 47.4383C80.4259 47.19 80.6148 46.7438 81.061 46.8507C81.7609 47.0183 82.1305 47.8934 82.1061 48.5197H82.1067Z" fill="#173F6F"/>
<path d="M76.0581 52.0559C75.7414 52.0221 75.3683 52.0268 75.3207 51.7119C75.2869 51.4885 75.4568 51.3857 75.6321 51.3299C76.7859 50.9633 77.5672 50.1446 78.2356 49.188C79.2854 47.685 79.9241 47.1396 78.8975 46.3981C78.6551 46.2234 78.3075 46.1485 78.3871 45.8824C78.5992 45.17 80.9841 46.1925 80.302 47.8917C79.7108 49.3651 77.7716 51.9484 76.0587 52.0559H76.0581Z" fill="#173F6F"/>
<path d="M2.78987 78.1237C2.47201 78.5123 1.83925 78.2853 1.8345 77.7833C1.82202 76.5201 2.0365 74.9112 2.54033 71.5086C3.29073 66.4453 5.45815 62.5317 6.51155 63.2043C8.70927 64.6065 11.3865 64.4383 13.7808 63.9505C13.7493 66.879 15.9578 71.6345 13.337 77.1957C12.7393 78.4641 11.8529 75.6753 7.94758 75.6753C5.89008 75.6753 4.07737 76.5504 2.78987 78.1237Z" fill="#173F6F"/>
<path d="M58.3834 78.2041C53.2471 78.2041 51.8562 70.5789 67.0371 55.874C68.116 54.8289 69.0577 54.9905 70.1688 55.2347C72.3736 55.7201 73.0551 56.9024 72.8846 58.3765C72.3528 62.968 68.7238 68.26 65.4032 72.5508C63.818 74.5994 60.9442 78.2041 58.3834 78.2041Z" fill="#173F6F"/>
<path d="M11.0945 83.2283C15.5737 80.9302 26.7477 83.6656 30.1931 86.6565C31.0166 87.3712 30.8876 87.8186 29.8693 89.7858C29.2163 91.0465 29.0345 91.8106 27.1879 92.2806C14.1395 95.6042 -0.689034 89.2748 11.0951 83.2289L11.0945 83.2283Z" fill="#173F6F"/>
<path d="M51.3834 75.6876C51.4374 76.0346 51.0215 76.2497 50.7696 76.0067C50.2919 75.5456 49.7293 74.9639 49.03 74.2415C47.3747 72.5321 48.6052 73.8731 48.6456 67.3049C48.6497 66.6668 51.3733 66.8177 52.7065 62.3955C52.7909 62.1157 53.1527 62.0426 53.3381 62.2672C55.1627 64.4744 55.1918 64.5226 54.9642 64.8464C52.8895 67.804 50.8219 72.0883 51.384 75.687L51.3834 75.6876Z" fill="#173F6F"/>
<path d="M44.5955 56.8207C43.4803 53.364 42.5529 52.8245 40.5221 51.6439C38.6357 50.5478 37.6524 49.9631 33.645 49.9067C33.8244 51.4283 33.9462 52.2202 32.8132 53.1911C30.9488 54.7881 27.4398 55.589 23.9997 54.5089C22.531 54.0472 22.6712 51.9309 22.3908 49.7837C21.7592 49.8479 20.3386 50.0713 18.0928 50.3446C20.1883 53.0271 19.9109 57.2193 18.9941 60.0926C18.3839 62.0063 17.236 62.6789 16.5492 63.0805C16.3312 63.2082 16.3662 63.0918 16.6389 64.5011C17.4054 68.4699 18.129 72.2177 17.277 75.6988C16.1613 80.2576 14.0497 79.5993 16.0014 79.5993C19.2817 79.5993 28.6857 81.0835 32.4638 85.1539C34.6764 84.4921 36.2877 85.0529 40.8477 84.839C43.1791 79.4193 42.194 81.3532 44.0828 76.0381C45.5865 71.806 46.1153 61.5298 44.5961 56.8213L44.5955 56.8207ZM40.8513 72.8808C40.821 73.0507 40.6421 73.1809 40.4253 73.191C21.2952 74.0513 21.7372 74.0732 21.7978 73.5011C22.7698 64.3692 21.2762 63.3045 22.3801 63.2956C27.0613 63.2576 35.7007 63.0823 40.9808 62.4507C42.1316 62.3129 40.963 72.2504 40.8513 72.8808Z" fill="#173F6F"/>
</svg>
