<svg width="120" height="119" viewBox="0 0 120 119" fill="none" xmlns="http://www.w3.org/2000/svg">
<path d="M15.5293 49.108C15.9821 50.7097 19.9323 80.9137 20.8914 84.6741C23.3309 83.9952 25.7657 83.3163 28.2028 82.6196C28.1332 80.7917 24.8601 51.9634 23.4327 47.8376C22.3885 48.081 16.9746 48.9687 15.5293 49.108Z" fill="#074B86"/>
<path d="M28.7832 52.6067C30.7288 52.1047 32.7156 51.7785 34.7195 51.6321C35.4502 53.8776 37.9224 75.9343 38.5144 79.3989C36.3385 80.0427 34.162 80.7044 31.9861 81.3488C31.8296 80.06 29.4621 56.3147 28.7832 52.6067Z" fill="#074B86"/>
<path d="M39.9922 56.4369C40.8252 56.3328 44.8319 55.8419 45.963 55.7229C46.1374 57.1676 48.0872 74.9241 48.6268 77.1524L42.255 78.5102C41.6981 77.397 40.2879 59.5184 39.9922 56.4369Z" fill="#074B86"/>
<path d="M50.9084 62.6176L56.2355 62.2344L56.7573 74.7686L52.2139 75.8629C51.9003 74.3855 50.8906 65.1766 50.9084 62.6176Z" fill="#074B86"/>
<path d="M34.2109 11.6792V23.7613C34.2109 23.5518 38.4063 21.724 38.4414 21.6544C38.4937 21.5503 38.1266 21.4128 38.0249 21.3414C37.1788 20.7541 37.5049 19.8004 38.4414 19.8438C39.0343 20.0346 39.6015 20.2978 40.13 20.6274C40.3906 20.7672 40.4614 20.7339 40.7393 20.6274C41.2284 20.44 43.5245 19.4088 44.1689 19.0953C43.4508 16.9989 42.1155 15.1688 40.3383 13.8452C38.5611 12.5217 36.4251 11.7666 34.2109 11.6792Z" fill="#074B86"/>
<path d="M31.8096 16.4324L32.7848 27.0864C33.8642 26.5991 38.8431 24.6315 38.8955 24.6469C38.9478 24.6624 38.9824 24.8558 38.9127 24.873C38.8383 24.8892 38.7696 24.9255 38.7143 24.9779C38.6591 25.0304 38.6192 25.097 38.5992 25.1705C38.5758 25.3444 38.5817 25.521 38.6164 25.693C38.6164 25.7281 38.2511 26.1981 38.2511 26.4593C38.258 26.7222 38.3297 26.9793 38.4599 27.2078C38.7357 27.6374 39.1202 27.9863 39.5744 28.2193C40.126 28.4961 40.6959 28.7346 41.2802 28.9333C41.9863 29.17 42.7408 29.224 43.4734 29.0904C43.5016 30.2552 43.2941 31.4137 42.8633 32.4963C42.4325 33.5789 41.7874 34.5632 40.9667 35.3903C37.5984 38.7764 31.6371 39.2054 27.5274 36.2435C23.7652 33.5297 22.5639 28.7048 23.5582 24.6838C24.0677 22.6951 25.1024 20.8799 26.5541 19.4283C28.0057 17.9766 29.8209 16.9419 31.8096 16.4324Z" fill="#074B86"/>
<path d="M61.5775 79.5204C55.33 80.9484 15.7577 91.5847 14.1388 92.1243C13.8781 90.5053 9.71552 53.5683 7.26234 47.1929C7.24609 47.1473 7.21307 47.1096 7.17 47.0875C7.12694 47.0653 7.07706 47.0604 7.03051 47.0738C6.98397 47.0871 6.94426 47.1177 6.91945 47.1593C6.89465 47.2009 6.88663 47.2503 6.89701 47.2976C8.18816 53.3375 12.9297 90.7868 13.5473 92.664C13.6294 92.9151 13.7925 92.8907 13.9478 92.8907C15.5316 92.5932 57.7344 81.2834 61.6471 79.8864C61.9066 79.7936 61.8024 79.4693 61.5775 79.5204Z" fill="#074B86"/>
<path d="M14.6108 98.9835C20.7275 97.5055 59.575 86.1636 61.2315 85.5787C61.3135 85.5527 61.3823 85.496 61.4235 85.4204C61.4647 85.3449 61.4752 85.2564 61.4527 85.1733C61.4302 85.0902 61.3765 85.0191 61.3028 84.9747C61.2291 84.9302 61.1411 84.916 61.0571 84.9349C59.5458 85.2324 17.8667 97.4168 14.524 98.6199C14.4978 98.6232 14.4725 98.632 14.4499 98.6457C14.4273 98.6594 14.4079 98.6777 14.3928 98.6994C14.3778 98.7212 14.3675 98.7458 14.3626 98.7718C14.3577 98.7978 14.3584 98.8245 14.3645 98.8502C14.3707 98.8759 14.3822 98.9 14.3982 98.921C14.4143 98.9419 14.4347 98.9593 14.4579 98.9718C14.4812 98.9844 14.5068 98.992 14.5331 98.994C14.5595 98.996 14.586 98.9924 14.6108 98.9835Z" fill="#074B86"/>
<path d="M17.3445 102.587C20.5247 102.063 53.5687 93.3881 55.0865 92.786C55.1685 92.76 55.2373 92.7033 55.2785 92.6277C55.3198 92.5522 55.3302 92.4636 55.3077 92.3806C55.2852 92.2975 55.2315 92.2264 55.1578 92.1819C55.0841 92.1375 54.9961 92.1233 54.9122 92.1422C53.314 92.4564 20.3248 101.328 17.2397 102.221C17.1926 102.237 17.1532 102.269 17.1299 102.313C17.1066 102.357 17.1012 102.408 17.1148 102.455C17.1284 102.503 17.16 102.543 17.2028 102.568C17.2457 102.593 17.2965 102.6 17.3445 102.587Z" fill="#074B86"/>
<path d="M7.66608 31.9259C7.64745 31.8657 7.61371 31.8112 7.56806 31.7676C7.52241 31.7241 7.46638 31.693 7.4053 31.6772C7.34422 31.6615 7.28013 31.6616 7.21913 31.6777C7.15812 31.6937 7.10224 31.7251 7.0568 31.7688C6.23021 32.399 5.23759 32.7742 4.2008 32.8482C4.02646 32.863 3.83487 33.0052 3.85272 33.1968C4.02542 35.2061 4.41646 37.1907 5.01892 39.1153C5.04494 39.1881 5.09614 39.2491 5.16325 39.2874C5.23036 39.3257 5.30896 39.3387 5.38485 39.3241C6.39551 39.2017 7.3885 38.9621 8.34378 38.6101C8.39038 38.5947 8.42921 38.5619 8.45217 38.5185C8.47513 38.4751 8.48045 38.4245 8.46701 38.3773C8.45358 38.3301 8.42243 38.2899 8.38007 38.2651C8.3377 38.2403 8.2874 38.2328 8.23966 38.2442C7.33466 38.3698 6.42907 38.575 5.52408 38.7143C5.05494 37.011 4.7403 35.269 4.58398 33.5092C5.49575 33.4113 6.37195 33.1014 7.14248 32.6042C7.36858 33.2659 8.12244 36.4324 8.39555 37.322C8.50205 37.6695 9.07325 37.6195 9.05719 37.2345C8.98341 35.4424 8.28726 33.5645 7.66608 31.9259Z" fill="#074B86"/>
<path d="M11.1774 19.2002C11.1518 19.1152 11.0937 19.0438 11.0157 19.0015C10.9377 18.9592 10.8461 18.9493 10.7609 18.9741C9.72088 19.1556 8.6719 19.3043 7.64492 19.5483C7.55757 19.5715 7.48295 19.6283 7.43735 19.7063C7.39176 19.7844 7.37889 19.8773 7.40157 19.9648C8.62727 25.8588 9.73516 31.7505 10.5872 37.7041C10.6029 37.758 10.6304 37.8077 10.6677 37.8495C10.705 37.8914 10.7513 37.9244 10.803 37.9461C10.8547 37.9679 10.9106 37.9778 10.9667 37.9751C11.0227 37.9725 11.0774 37.9573 11.1269 37.9308C11.8853 37.5351 12.7142 37.2925 13.5664 37.2168C13.949 37.1638 13.8448 36.5724 13.4795 36.5552C12.7031 36.5416 11.9342 36.7086 11.2334 37.0431C10.3948 31.3684 9.36071 25.7283 8.13104 20.123C8.93191 19.9487 9.75003 19.7922 10.5705 19.653C11.5975 24.7884 12.4287 29.9953 13.7907 35.0421C13.8567 35.2866 14.1917 35.1813 14.1566 34.9374C13.3855 29.6603 12.1592 24.4451 11.1774 19.2002Z" fill="#074B86"/>
<path d="M20.0218 35.0419C19.4035 30.5164 18.5235 26.0348 17.6019 21.5676C17.5881 21.5166 17.5627 21.4695 17.5279 21.4298C17.493 21.3902 17.4495 21.3591 17.4007 21.3389C17.3519 21.3188 17.2991 21.31 17.2464 21.3135C17.1937 21.3169 17.1425 21.3324 17.0967 21.3587C16.1829 21.7581 15.2239 22.0446 14.2407 22.2119C14.1994 22.223 14.1606 22.2422 14.1267 22.2684C14.0929 22.2946 14.0646 22.3274 14.0435 22.3646C14.0225 22.4019 14.0091 22.4431 14.0041 22.4856C13.9992 22.5281 14.0027 22.5712 14.0146 22.6124C14.872 26.493 15.3159 30.4116 15.9644 34.3279C15.999 34.5368 16.347 34.485 16.3298 34.2762C16.1303 30.4067 15.5889 26.5625 14.712 22.7885C15.4886 22.6292 16.2513 22.408 16.9926 22.1269C17.7935 26.3926 18.542 30.6635 19.2381 34.9396C18.4942 35.2817 17.7011 35.505 16.8879 35.6012C16.4875 35.6697 16.6267 36.2331 16.9754 36.2629C17.9869 36.2949 18.9839 36.0153 19.8314 35.462C19.9037 35.4214 19.9612 35.3588 19.9955 35.2832C20.0297 35.2076 20.0389 35.1231 20.0218 35.0419Z" fill="#074B86"/>
<path d="M110.74 86.8149C109.713 86.7102 105.779 86.9339 104.856 86.9714C104.949 85.1666 104.92 83.3577 104.769 81.5569C104.722 81.425 104.638 81.3099 104.526 81.226C103.678 80.9716 102.774 80.9801 101.932 81.2505C101.089 81.5208 100.349 82.0403 99.8079 82.7403C99.324 83.4285 98.9838 84.207 98.8073 85.0295C98.6309 85.852 98.6219 86.7016 98.7809 87.5277C99.4711 91.5505 104.175 93.7561 107.781 91.9146C108.704 91.4539 109.483 90.75 110.036 89.8788C110.588 89.0075 110.892 88.002 110.915 86.9708C110.915 86.9363 110.758 86.8149 110.74 86.8149ZM106.945 91.654C105.844 92.0268 104.657 92.0636 103.535 91.7598C102.413 91.4561 101.406 90.8254 100.643 89.9481C98.65 87.5872 99.2367 83.7798 101.218 82.4101C102.124 81.7842 103.063 81.8532 104.074 81.9055C103.935 83.6983 104.144 85.5785 104.161 87.3545C104.162 87.4466 104.199 87.5346 104.264 87.5997C104.329 87.6647 104.417 87.7017 104.51 87.7026C105.605 87.6181 109.61 87.4051 110.515 87.2498C110.363 88.2339 109.952 89.1599 109.325 89.9336C108.698 90.7072 107.877 91.3008 106.945 91.654Z" fill="#074B86"/>
<path d="M109.992 66.6035C109.957 66.5512 109.783 66.5684 109.766 66.5684C108.896 67.1081 106.249 69.406 105.709 69.8588C106.265 68.3666 106.691 66.8289 106.98 65.263C107.002 65.1065 106.789 64.8626 106.754 64.8465C105.534 64.4351 104.218 64.3993 102.977 64.7437C101.736 65.0881 100.627 65.7969 99.7928 66.7785C97.1564 70.2295 99.2823 76.1795 103.901 76.9107C105.03 77.0821 106.183 76.9626 107.252 76.5635C108.322 76.1644 109.271 75.4989 110.011 74.6301C110.92 73.4887 111.413 72.0722 111.409 70.6135C111.406 69.1548 110.906 67.7406 109.992 66.6035ZM109.905 73.7757C109.304 74.6329 108.491 75.3193 107.545 75.7678C106.599 76.2163 105.553 76.4115 104.509 76.3342C100.574 76.0367 98.1423 71.3159 99.9648 67.8739C100.543 66.807 101.509 66.003 102.663 65.6277C103.806 65.2975 105.01 65.238 106.18 65.454C105.519 67.1599 105.186 69.0621 104.683 70.7983C104.665 70.8734 104.672 70.9521 104.702 71.023C104.733 71.0939 104.785 71.1532 104.851 71.1921C104.918 71.2311 104.995 71.2477 105.072 71.2394C105.149 71.2312 105.221 71.1986 105.278 71.1464C106.093 70.4669 109.177 67.7864 109.839 67.0557C111.002 69.1454 111.3 71.6884 109.905 73.7757Z" fill="#074B86"/>
<path d="M116.541 52.7984C116.123 52.1721 115.497 51.7147 114.773 51.5076C114.049 51.3005 113.275 51.3573 112.589 51.6679C111.963 50.7105 95.2854 29.35 93.6313 27.4514C93.6836 27.4341 96.6426 25.9722 95.2675 23.1519C94.6059 21.7941 92.2985 21.2062 91.0377 22.1939C90.9496 22.263 88.8266 23.5696 89.5579 25.902C88.6523 26.2679 85.1013 28.1826 84.1958 28.6527C83.7085 27.5733 81.5147 23.1281 80.8358 22.0375C80.8118 22.0002 80.7755 21.9726 80.7333 21.9591C80.6911 21.9457 80.6456 21.9473 80.6044 21.9638C80.5633 21.9802 80.5292 22.0105 80.5079 22.0493C80.4866 22.0881 80.4795 22.1332 80.4877 22.1767C80.8043 23.3816 83.1545 28.0755 83.7257 29.297C83.7487 29.3358 83.7791 29.3696 83.8152 29.3966C83.8513 29.4236 83.8923 29.4431 83.936 29.4542C83.9797 29.4653 84.0251 29.4676 84.0697 29.461C84.1143 29.4545 84.1571 29.4392 84.1958 29.416C85.1882 28.9115 89.0355 27.0664 89.8709 26.5267C90.2568 27.0143 90.7793 27.3757 91.3717 27.5647C91.964 27.7538 92.5993 27.762 93.1963 27.5882C94.6582 29.6951 111.162 51.2097 112.032 52.1522C111.404 52.5602 110.955 53.1928 110.777 53.9208C110.599 54.6487 110.705 55.4171 111.075 56.0691C111.893 57.3745 113.739 57.6756 115.061 57.0437C116.595 56.3172 117.425 54.2978 116.541 52.7984ZM90.2892 25.9716C90.2713 25.902 89.5579 23.8296 91.1222 22.786C91.1745 22.8032 93.0898 21.6888 94.4649 23.256C95.4573 24.3865 94.729 26.1876 93.4724 26.7725C92.9324 27.0349 92.3171 27.0984 91.7349 26.9519C91.1526 26.8054 90.6407 26.4583 90.2892 25.9716ZM114.731 56.4356C113.652 56.9425 112.123 56.6778 111.528 55.5651C110.921 54.4346 111.545 53.2327 112.398 52.4491C112.45 52.4664 114.558 51.4554 115.74 52.9191C116.682 54.0853 115.985 55.8471 114.731 56.4368V56.4356Z" fill="#074B86"/>
<path d="M78.0788 15.562C77.3483 13.6117 76.4814 11.7153 75.4846 9.88684C76.0402 9.44346 76.4252 8.8215 76.5743 8.12651C76.7234 7.43153 76.6275 6.70636 76.3027 6.07408C75.5292 4.77163 73.3337 4.12903 72.0729 5.11673C71.9848 5.18575 68.9741 6.59649 70.9584 9.50366C70.0879 10.1153 60.5132 18.0342 59.6778 18.8868C59.1766 18.467 58.5575 18.2129 57.9059 18.1597C57.2543 18.1064 56.6021 18.2565 56.0394 18.5893C54.3538 19.743 53.9658 21.4798 54.8036 22.8198C55.6199 24.1288 57.4662 24.4197 58.7901 23.7944C60.3038 23.0804 61.2617 20.6611 60.0086 19.2158C60.8791 18.6417 70.6103 10.8948 71.4808 10.0415C72.4209 10.7377 74.3011 10.8745 75.0842 10.2159C75.7583 12.1474 76.561 14.0316 77.4868 15.8559C77.5349 15.9164 77.6023 15.9587 77.6778 15.9755C77.7533 15.9923 77.8323 15.9827 77.9016 15.9483C77.9709 15.9139 78.0263 15.8568 78.0585 15.7865C78.0908 15.7162 78.0979 15.6369 78.0788 15.562ZM58.4438 23.1869C57.3656 23.6938 55.8359 23.429 55.2409 22.3164C54.6346 21.1859 55.2582 19.984 56.1114 19.2004C56.1637 19.2176 58.0672 18.3406 59.4535 19.6704C60.5358 20.7099 59.6963 22.5972 58.4414 23.1869H58.4438ZM74.4737 9.71251C73.602 10.11 71.9408 10.1433 71.2708 8.84202C70.6859 7.70676 71.2881 6.50962 72.1413 5.72601C72.193 5.74326 74.1815 4.69606 75.4834 6.19606C76.48 7.34262 75.744 9.13417 74.4737 9.71251Z" fill="#074B86"/>
<path d="M114.309 53.5126C114.117 53.3803 113.89 53.3058 113.657 53.2978C113.424 53.2898 113.193 53.3487 112.991 53.4674C112.79 53.5862 112.627 53.7599 112.522 53.9682C112.416 54.1765 112.372 54.4106 112.395 54.6431C112.524 55.4279 113.401 56.1359 114.135 55.6004C114.493 55.3482 114.752 54.9786 114.866 54.5556C114.871 54.3486 114.822 54.1439 114.724 53.9612C114.627 53.7786 114.484 53.6241 114.309 53.5126Z" fill="#074B86"/>
<path d="M93.1927 23.692C93.0001 23.5596 92.7738 23.4849 92.5402 23.4768C92.3067 23.4687 92.0757 23.5275 91.8744 23.6463C91.6732 23.7651 91.5101 23.9389 91.4043 24.1473C91.2985 24.3557 91.2545 24.5899 91.2774 24.8225C91.4077 25.6079 92.2847 26.3159 93.0183 25.7804C93.3797 25.5313 93.6392 25.1604 93.7496 24.7356C93.76 24.5275 93.7137 24.3205 93.6156 24.1367C93.5175 23.9529 93.3713 23.7992 93.1927 23.692Z" fill="#074B86"/>
<path d="M74.2337 6.63142C74.0412 6.499 73.8148 6.42435 73.5812 6.41626C73.3477 6.40817 73.1167 6.46698 72.9155 6.58577C72.7142 6.70455 72.5511 6.87836 72.4453 7.08673C72.3396 7.2951 72.2955 7.52936 72.3184 7.76192C72.4487 8.54732 73.3257 9.25537 74.0594 8.71987C74.4175 8.46753 74.6762 8.09795 74.7906 7.67505C74.795 7.46795 74.7461 7.26319 74.6486 7.08044C74.5511 6.89768 74.4082 6.74306 74.2337 6.63142Z" fill="#074B86"/>
<path d="M58.1808 20.4186C57.9883 20.2865 57.7619 20.212 57.5285 20.2041C57.295 20.1961 57.0642 20.255 56.863 20.3737C56.6619 20.4924 56.4988 20.6661 56.3929 20.8743C56.2871 21.0826 56.2429 21.3167 56.2655 21.5491C56.3958 22.334 57.2723 23.0426 58.0065 22.5065C58.3646 22.2544 58.6233 21.885 58.7378 21.4623C58.7421 21.2552 58.6931 21.0505 58.5956 20.8677C58.4981 20.685 58.3553 20.5304 58.1808 20.4186Z" fill="#074B86"/>
<path d="M110.773 38.5412C109.702 37.4874 104.972 33.6901 103.792 32.8291C103.46 32.587 103.185 33.0886 103.392 33.3516C104.306 34.5112 109.245 38.321 110.599 38.8523C110.773 38.9225 110.896 38.6619 110.773 38.5412Z" fill="#074B86"/>
<path d="M112.078 35.7555C111.007 34.7024 106.276 30.9051 105.097 30.0435C104.765 29.8013 104.49 30.3029 104.696 30.5659C105.61 31.7256 110.546 35.5443 111.904 36.0667C112.078 36.1559 112.218 35.8941 112.078 35.7555Z" fill="#074B86"/>
<path d="M113.648 33.6662C112.577 32.613 107.846 28.8157 106.667 27.9541C106.335 27.712 106.06 28.2136 106.267 28.4766C107.18 29.6362 112.119 33.446 113.474 33.9773C113.649 34.0481 113.771 33.7875 113.648 33.6662Z" fill="#074B86"/>
<path d="M61.4234 43.5204C59.2992 43.5377 51.1162 42.043 45.7903 29.9586C45.6297 29.595 45.0763 29.8717 45.1811 30.2198C48.4309 41.0327 57.4434 44.614 61.4751 43.8857C61.6858 43.8482 61.6322 43.5186 61.4234 43.5204Z" fill="#074B86"/>
<path d="M98.3605 56.6812C98.206 55.8398 97.8338 55.0535 97.2812 54.4005C96.8647 54.015 93.9926 54.1357 93.1554 54.2262C92.9644 54.247 92.8776 54.5534 93.1031 54.5921C93.7492 54.7028 96.6374 54.7111 96.7766 54.801C97.1247 54.9925 97.6852 56.7157 97.7167 56.9596C97.9874 59.0421 97.0378 60.9289 96.3762 62.8263C94.8357 62.9703 93.3063 63.2146 91.7976 63.5576C91.6418 63.6111 91.5888 63.8896 91.7976 63.9229C93.4445 63.9428 95.0893 63.7971 96.707 63.488C97.2038 63.3594 98.8407 58.559 98.3605 56.6812Z" fill="#074B86"/>
<path d="M100.639 113.833C99.7518 111.866 98.2375 109.812 96.2526 108.835C96.4188 108.48 96.5134 108.096 96.531 107.705C90.1246 96.6327 84.0842 75.0289 83.9622 74.228C84.1015 74.228 84.2234 74.2429 84.3454 74.2453C86.4356 74.2887 93.8511 73.5313 94.1808 71.7385C94.5973 69.4585 95.0316 67.1225 95.3648 64.8276C95.3752 64.7803 95.3672 64.7308 95.3424 64.6893C95.3176 64.6477 95.2779 64.6171 95.2313 64.6038C95.1848 64.5904 95.1349 64.5953 95.0918 64.6174C95.0487 64.6396 95.0157 64.6773 94.9995 64.7229C94.3146 66.6269 93.6584 71.5463 93.3454 71.7909C93.1014 71.9819 86.9914 74.4196 80.2018 72.8702C80.2018 71.7736 80.2887 67.5259 80.707 65.8546C80.7588 65.6457 80.4273 65.6279 80.3411 65.8022C79.7074 67.0868 79.5753 70.7812 79.5402 71.4601C79.314 71.1301 78.9939 70.8758 78.6214 70.7299C78.2489 70.584 77.8412 70.5534 77.4511 70.6419C77.7641 66.3675 77.9825 55.927 79.1225 55.2874C79.6461 54.9934 81.0914 58.2624 80.2369 64.1309C80.1667 64.6134 83.5172 64.8597 85.9989 63.9393C86.3809 63.7977 86.0864 63.2092 85.7377 63.33C83.4238 64.135 81.4537 63.8524 80.6891 63.9048C81.2115 61.9026 81.5596 57.098 80.1322 55.0262C80.585 54.9566 82.8692 54.8262 83.5094 54.6608C83.5491 54.6494 83.584 54.6254 83.6089 54.5924C83.6337 54.5594 83.6471 54.5192 83.6471 54.4779C83.6471 54.4366 83.6337 54.3964 83.6089 54.3634C83.584 54.3304 83.5491 54.3063 83.5094 54.2949C82.1013 54.123 80.6753 54.1631 79.279 54.4139C79.0717 54.4395 78.8803 54.5382 78.7393 54.6924C77.7951 55.6111 77.3643 59.0793 77.347 59.2364C75.1187 59.6017 71.0275 60.2979 66.4662 58.9228C66.2401 57.8959 63.9405 49.1743 63.6465 47.2608C63.111 43.761 63.5448 42.2664 64.5515 39.3223C64.6229 39.1141 64.3106 38.9933 64.2035 39.1831C62.8278 41.6226 62.6237 44.4399 62.9676 47.1561C63.214 49.1053 65.3697 58.1041 65.7701 59.1501C65.5267 62.0924 65.2661 76.1933 65.3352 78.5263C65.5137 84.5322 65.6053 87.5251 66.1533 91.1302C66.6846 94.6276 68.8861 106.833 69.0777 109.131C69.0605 109.131 66.0527 110.671 64.5688 111.392C64.135 111.603 61.7491 112.315 62.619 113.185C63.0022 113.568 70.6283 112.94 72.4728 112.802C72.5695 112.801 72.662 112.763 72.7304 112.694C72.7988 112.626 72.8375 112.533 72.8381 112.437C72.847 111.653 72.8209 109.947 72.7857 109.912C72.824 109.902 72.8597 109.884 72.8905 109.86C73.2213 103.993 74.735 81.9886 75.136 77.0275C77.7647 86.9324 91.4128 108.101 92.4053 109.651C92.5366 109.734 92.6762 109.804 92.8218 109.86C92.7907 109.925 92.7846 109.999 92.8045 110.069C93.1157 111.305 94.5443 112.49 95.5552 113.133C96.9922 114.037 98.6812 114.458 100.375 114.334C100.431 114.33 100.486 114.311 100.533 114.28C100.58 114.249 100.619 114.207 100.645 114.157C100.672 114.106 100.685 114.051 100.684 113.994C100.683 113.937 100.668 113.882 100.639 113.833ZM72.0723 112.092C69.4258 112.266 63.3853 112.754 63.3157 112.702C63.4074 112.77 69.1997 109.628 69.1997 109.446C69.5887 109.8 70.0602 110.05 70.571 110.175C71.0819 110.3 71.6158 110.295 72.1241 110.16C72.0718 110.803 72.0546 111.448 72.0723 112.092ZM93.6238 110.09C94.4247 110.209 95.6088 110.177 96.0788 109.15C97.6285 110.379 98.9084 111.914 99.8386 113.659C98.595 113.595 97.384 113.239 96.3041 112.619C95.2242 111.999 94.3059 111.132 93.6238 110.09Z" fill="#074B86"/>
<path d="M78.622 42.9805C78.4489 42.8568 78.2055 43.0305 78.3245 43.2066C79.1082 44.3615 79.9435 45.4521 80.6921 46.6189C79.4913 48.1856 78.9303 52.591 79.1778 53.5126C79.2807 53.8958 79.7924 53.7744 79.8394 53.4251C79.8989 52.9908 80.0483 49.0733 81.0407 47.1586C82.9382 49.5261 86.6409 60.4866 86.9419 61.2244C87.0693 61.5356 87.6315 61.5546 87.6036 61.1375C87.5542 60.3872 83.1916 46.2316 78.622 42.9805Z" fill="#074B86"/>
<path d="M46.4304 25.4844C43.9049 23.5756 41.2397 21.859 38.4574 20.3489C38.1456 20.2061 37.7434 20.6131 38.057 20.8713C40.5913 22.6552 43.2435 24.2654 45.9955 25.6908C45.506 26.0177 44.9445 26.2209 44.3592 26.2828C43.9582 26.2317 42.8985 25.6599 42.6879 25.7432C42.6192 25.7628 42.5586 25.8038 42.5147 25.8602C42.4709 25.9165 42.4461 25.9854 42.4439 26.0567C42.5147 26.7707 44.0974 27.0284 44.6198 26.9968C45.2642 26.9576 46.4304 26.4917 46.4828 25.7259C46.4907 25.6842 46.4901 25.6413 46.4811 25.5998C46.4721 25.5583 46.4549 25.5191 46.4304 25.4844Z" fill="#074B86"/>
<path d="M41.9071 24.9976C41.5357 24.4543 41.0405 24.0069 40.4625 23.6922C40.3989 23.6766 40.3323 23.6796 40.2705 23.701C40.2086 23.7223 40.1542 23.7609 40.1138 23.8123C40.0734 23.8638 40.0486 23.9257 40.0425 23.9908C40.0364 24.0559 40.0491 24.1214 40.0793 24.1795C40.5338 24.6569 41.0944 25.0208 41.7155 25.2416C41.7458 25.2427 41.7758 25.2367 41.8033 25.224C41.8308 25.2113 41.8548 25.1922 41.8735 25.1684C41.8922 25.1446 41.905 25.1168 41.9108 25.0871C41.9167 25.0574 41.9154 25.0267 41.9071 24.9976Z" fill="#074B86"/>
<path d="M41.3508 26.1294C40.9811 25.5836 40.4857 25.1347 39.9062 24.8204C39.8426 24.8048 39.7758 24.8078 39.7139 24.8291C39.652 24.8504 39.5975 24.8892 39.5571 24.9407C39.5166 24.9922 39.4919 25.0543 39.4858 25.1195C39.4798 25.1847 39.4927 25.2503 39.523 25.3083C39.9777 25.7854 40.5382 26.149 41.1592 26.3698C41.1895 26.3722 41.2198 26.3671 41.2476 26.355C41.2755 26.3429 41.2999 26.3242 41.3188 26.3004C41.3377 26.2767 41.3505 26.2487 41.3561 26.2189C41.3617 26.1891 41.3599 26.1584 41.3508 26.1294Z" fill="#074B86"/>
<path d="M44.1664 27.556C43.8045 27.7158 43.425 27.8326 43.0359 27.9041C42.7051 27.9041 40.7904 26.8926 39.8824 26.372C39.7955 26.2851 39.5706 26.0959 39.3427 26.253C38.9262 26.5356 39.3778 26.9497 39.4998 27.0539C40.2598 27.689 41.1517 28.1469 42.1107 28.3944C42.8247 28.6098 43.9736 28.6211 44.3913 27.8547C44.4078 27.8199 44.4144 27.7813 44.4104 27.743C44.4065 27.7047 44.3922 27.6682 44.3691 27.6375C44.3459 27.6067 44.3148 27.5829 44.2791 27.5685C44.2434 27.5542 44.2044 27.5499 44.1664 27.556Z" fill="#074B86"/>
<path d="M74.0456 20.9235C73.9783 20.731 73.8001 20.4325 73.5397 20.523C73.1023 20.6744 72.967 21.408 73.3305 21.6213C73.4288 21.6659 73.5383 21.6797 73.6446 21.661C73.7509 21.6423 73.8491 21.592 73.9264 21.5166C74.0036 21.4413 74.0563 21.3443 74.0776 21.2385C74.0989 21.1327 74.0877 21.0229 74.0456 20.9235Z" fill="#074B86"/>
<path d="M87.0855 63.5919C86.7547 64.5147 85.3005 65.8452 84.9792 66.2557C84.925 66.3133 84.8931 66.3883 84.8891 66.4673C84.8851 66.5463 84.9094 66.6241 84.9575 66.6869C85.0057 66.7496 85.0746 66.7932 85.1519 66.8098C85.2293 66.8264 85.31 66.815 85.3796 66.7775C85.9193 66.5342 87.6496 64.2571 87.4336 63.6443C87.4245 63.6077 87.4048 63.5746 87.377 63.5492C87.3491 63.5238 87.3143 63.5072 87.2771 63.5016C87.2398 63.496 87.2017 63.5016 87.1676 63.5177C87.1335 63.5337 87.1049 63.5596 87.0855 63.5919Z" fill="#074B86"/>
<path d="M86.9081 66.3947C86.2789 67.2569 85.7145 68.1646 85.2195 69.1103C85.0963 69.3888 85.3724 69.785 85.6717 69.5631C86.1025 69.2436 87.2562 67.1081 87.2187 66.534C87.2209 66.4971 87.2117 66.4605 87.1926 66.4289C87.1734 66.3973 87.1451 66.3723 87.1114 66.3572C87.0777 66.3421 87.0402 66.3376 87.0039 66.3443C86.9676 66.351 86.9342 66.3686 86.9081 66.3947Z" fill="#074B86"/>
<path d="M88.0193 66.6397C87.4555 67.6099 86.944 68.6095 86.4871 69.6344C86.3449 69.9812 86.8174 70.1556 87.0447 69.9652C87.4612 69.6153 88.4286 67.3198 88.3673 66.7444C88.3673 66.7037 88.3542 66.664 88.3298 66.6312C88.3055 66.5985 88.2713 66.5745 88.2322 66.5627C88.1932 66.551 88.1514 66.5521 88.113 66.566C88.0746 66.5799 88.0418 66.6057 88.0193 66.6397Z" fill="#074B86"/>
<path d="M89.1033 66.4985C88.7093 67.2003 88.4053 67.9489 88.1983 68.7267C88.1819 68.797 88.1884 68.8707 88.2166 68.9371C88.2449 69.0035 88.2936 69.0592 88.3557 69.096C88.4177 69.1329 88.4899 69.149 88.5618 69.1421C88.6336 69.1352 88.7014 69.1056 88.7553 69.0576C89.1832 68.3099 89.4111 67.4646 89.4169 66.6032C89.3639 66.464 89.2063 66.3753 89.1033 66.4985Z" fill="#074B86"/>
<path d="M90.0393 66.2377C89.6774 66.9169 89.4136 67.6438 89.2557 68.397C89.2236 68.7106 89.6252 68.8016 89.8305 68.6404C90.1316 68.4024 90.5445 66.6209 90.3351 66.2729C90.3218 66.2465 90.3022 66.2238 90.2781 66.2069C90.2539 66.19 90.2259 66.1793 90.1966 66.1758C90.1673 66.1723 90.1376 66.1762 90.1102 66.187C90.0827 66.1978 90.0584 66.2152 90.0393 66.2377Z" fill="#074B86"/>
<path d="M71.4683 26.0242C71.9544 26.4603 73.7733 26.9167 74.3927 25.5714C74.4808 25.3804 74.1874 25.14 74.0446 25.2929C73.7404 25.5796 73.3576 25.7692 72.9452 25.8375C72.5327 25.9057 72.1093 25.8495 71.7289 25.6761C71.523 25.5666 71.2933 25.8677 71.4683 26.0242Z" fill="#074B86"/>
<path d="M71.7778 21.4639C71.6213 21.8804 71.0673 23.4274 71.1685 23.744C71.2177 23.8543 71.2936 23.9506 71.3894 24.0242C71.4853 24.0978 71.5979 24.1463 71.7172 24.1653C71.8365 24.1844 71.9587 24.1733 72.0727 24.1332C72.1866 24.0931 72.2887 24.0251 72.3698 23.9355C72.3929 23.9105 72.4094 23.8801 72.4176 23.847C72.4259 23.8139 72.4257 23.7793 72.417 23.7463C72.4084 23.7134 72.3915 23.6831 72.3681 23.6584C72.3447 23.6336 72.3154 23.6152 72.2829 23.6047C72.1604 23.572 71.9158 23.6047 71.8301 23.5524C71.6713 23.4518 71.9349 22.1077 72.1086 21.4984C72.1782 21.3068 71.8474 21.3068 71.7778 21.4639Z" fill="#074B86"/>
<path d="M73.3471 19.8964C73.5904 19.9505 74.4776 20.4188 74.7227 20.4539C74.7706 20.4517 74.8172 20.4375 74.8582 20.4127C74.8993 20.3879 74.9334 20.3532 74.9576 20.3118C74.9818 20.2704 74.9952 20.2236 74.9967 20.1757C74.9982 20.1277 74.9877 20.0802 74.9661 20.0374C74.6876 19.5501 73.9046 19.4894 73.3994 19.4805C73.3509 19.4851 73.3053 19.5062 73.2703 19.5401C73.2353 19.5741 73.2129 19.619 73.2068 19.6675C73.2007 19.7159 73.2112 19.7649 73.2367 19.8065C73.2622 19.8482 73.3012 19.8798 73.3471 19.8964Z" fill="#074B86"/>
<path d="M91.7351 52.1545C91.2663 47.2606 89.32 42.8201 86.5128 38.8193C84.7397 36.293 82.3692 33.6839 79.0789 33.4572C78.5782 32.4938 78.2038 31.4699 77.965 30.4108C77.945 30.3369 77.8984 30.273 77.8342 30.2312C77.77 30.1895 77.6926 30.173 77.617 30.1847C77.5526 29.1187 77.7128 28.0511 78.087 27.0508C78.383 27.1611 78.7077 27.1677 79.008 27.0697C79.3083 26.9717 79.5665 26.7748 79.7405 26.5112C79.2881 25.5626 79.1714 24.4884 79.4097 23.4648C79.7405 22.2813 80.5116 21.9338 80.6806 20.8712C80.9133 19.4098 79.6852 17.156 76.903 16.2897C76.2931 16.1005 74.4724 15.7803 73.4734 14.2351C73.214 13.8341 72.7094 13.1504 72.2548 13.0166C70.8328 12.6001 70.1027 15.349 70.183 16.1504C70.2653 16.9162 70.5676 17.6418 71.0535 18.2395C69.9742 20.2238 69.71 24.6292 69.9742 25.915C70.3181 27.5869 71.4718 28.7174 72.9861 28.787C72.8214 29.6589 72.458 30.4811 71.924 31.1897C71.924 31.1545 71.8699 30.5066 71.3843 30.7732C70.6373 31.1751 69.8415 31.4793 69.0168 31.6781C68.9699 31.6906 68.9258 31.7122 68.8872 31.7417C68.8486 31.7712 68.8163 31.8081 68.792 31.8502C68.7677 31.8923 68.752 31.9387 68.7457 31.9869C68.7395 32.0351 68.7429 32.0841 68.7556 32.1309C68.8596 32.4452 68.9818 32.7531 69.1215 33.0532C66.9515 33.7623 64.819 34.5817 62.7324 35.5082C61.7187 36.0092 60.6119 36.2943 59.4822 36.3455C58.3526 36.3967 57.2245 36.2129 56.1696 35.8057C54.2204 35.0173 48.7577 30.0574 47.3761 26.6855C47.3525 26.6439 47.3184 26.6093 47.2771 26.5853C47.2358 26.5612 47.1888 26.5485 47.1411 26.5485C47.0933 26.5485 47.0463 26.5612 47.005 26.5853C46.9638 26.6093 46.9296 26.6439 46.906 26.6855C46.5974 27.3607 46.0342 27.8865 45.3394 28.148C45.2938 28.1643 45.2561 28.1973 45.2339 28.2403C45.2118 28.2834 45.2069 28.3333 45.2203 28.3798C45.2336 28.4264 45.2642 28.4661 45.3058 28.4909C45.3473 28.5157 45.3968 28.5237 45.4441 28.5133C46.13 28.3531 46.7319 27.9436 47.1327 27.3644C49.2039 31.5948 53.9205 35.62 55.8715 36.4346C57.9638 37.2827 60.3031 37.2889 62.3998 36.4518C63.5161 36.0044 69.3114 33.5447 69.3286 33.4768C69.4476 33.7202 69.5714 33.9647 69.7112 34.2075C69.7406 34.2546 69.7802 34.2944 69.827 34.3242C69.8738 34.354 69.9267 34.373 69.9818 34.3797C70.0369 34.3864 70.0928 34.3808 70.1454 34.3631C70.1981 34.3455 70.2461 34.3163 70.286 34.2777C70.7191 33.8921 71.2975 33.4768 71.7306 33.0068C71.6444 33.7696 71.6046 34.537 71.6116 35.3047C69.2435 41.7807 70.4216 49.4062 71.5242 51.9474C71.6081 52.1402 71.9585 52.139 71.9246 51.8951C70.6751 46.4805 70.693 40.8504 71.977 35.4439C72.4097 34.8495 72.7719 34.2067 73.0563 33.5286C73.2824 34.2253 73.5918 34.8971 73.8221 35.548C73.8424 35.6258 73.8873 35.695 73.9502 35.7451C74.013 35.7953 74.0904 35.8238 74.1707 35.8265C75.9185 35.7957 77.6073 35.1892 78.9753 34.101C81.625 34.8056 83.9459 36.4124 85.5382 38.6444C87.0559 40.8245 88.3727 43.1379 89.4723 45.5559C92.3123 51.4565 90.6873 60.666 90.4648 61.8155C90.1988 63.1899 88.0771 62.7806 87.3113 62.5116C87.1191 62.4438 86.965 62.7687 87.1721 62.8597C87.6641 63.0763 89.7151 63.5737 90.5844 63.0341C91.0057 62.7723 92.245 57.4946 91.7351 52.1545ZM70.0944 33.4923C69.8995 33.1012 69.7252 32.7002 69.572 32.291C70.161 32.1192 70.7323 31.8918 71.2784 31.6121C71.3129 31.9257 71.7306 32.2041 71.7485 32.2214C71.1541 32.586 70.5997 33.0119 70.0944 33.4923ZM72.7403 32.413C72.7058 32.4475 72.4274 33.1966 72.2881 33.5268C72.2924 33.1291 72.2525 32.7322 72.1691 32.3434C72.1864 32.3261 72.2881 32.0822 72.0644 32.0822C72.0999 32.035 72.1205 31.9784 72.1237 31.9195C72.1268 31.8605 72.1124 31.802 72.0823 31.7513C72.9908 30.9846 73.5754 29.9024 73.7185 28.7222C73.9441 28.6855 74.1657 28.6274 74.3802 28.5484C74.5706 28.477 74.5545 28.1682 74.3278 28.1825C73.2842 28.2486 70.7483 28.3212 70.515 25.0665C70.4478 23.8853 70.5534 22.7007 70.8286 21.5501C71.0934 20.3672 71.6991 18.1728 72.2215 17.6677C73.3862 17.606 74.5313 17.9858 75.4283 18.7312C76.3253 19.4767 76.9082 20.533 77.0606 21.6893C77.3351 21.6677 77.6091 21.7358 77.8415 21.8833C78.0739 22.0308 78.2522 22.2499 78.3494 22.5074C78.3821 22.6903 78.3763 22.878 78.3324 23.0585C78.2885 23.239 78.2074 23.4083 78.0944 23.5557C77.9813 23.7032 77.8388 23.8254 77.6759 23.9146C77.5129 24.0039 77.3332 24.0582 77.1481 24.074C77.1999 24.4745 77.4611 25.937 77.5307 26.1982C76.9214 27.2252 76.8696 29.7146 77.0606 30.4108C75.8076 31.0552 74.4843 31.5413 73.2312 32.169C73.0712 32.047 72.7927 32.2041 72.7403 32.413ZM74.3772 35.1113C74.0636 34.2783 73.8197 33.3858 73.4543 32.5695C74.8233 32.1657 76.1475 31.6232 77.4063 30.9505C77.6324 31.8905 77.9652 32.8016 78.3982 33.666C77.2285 34.5315 75.8302 35.0341 74.3772 35.1113Z" fill="#074B86"/>
</svg>
