<svg width="223" height="51" viewBox="0 0 223 51" fill="none" xmlns="http://www.w3.org/2000/svg">
<path d="M38.8402 11.3609L39.2195 13.6365L39.4802 13.9684V23H36.6119V11.3609H38.8402ZM44.5294 11.0764L44.2449 13.7314H43.4153C42.7989 13.7314 42.1747 13.8341 41.5426 14.0395C40.9104 14.245 40.1203 14.5531 39.1721 14.964L38.9824 13.281C39.8042 12.5856 40.6418 12.0483 41.4952 11.669C42.3485 11.2739 43.1703 11.0764 43.9605 11.0764H44.5294ZM51.5046 11.0764C52.9269 11.0764 54.0568 11.2739 54.8944 11.669C55.7478 12.0641 56.3562 12.7121 56.7197 13.6128C57.0989 14.5136 57.2886 15.7068 57.2886 17.1923C57.2886 18.6778 57.0989 19.8709 56.7197 20.7717C56.3562 21.6567 55.7478 22.3047 54.8944 22.7155C54.0568 23.1106 52.9269 23.3082 51.5046 23.3082C50.1139 23.3082 48.9918 23.1106 48.1385 22.7155C47.3009 22.3047 46.6925 21.6567 46.3132 20.7717C45.9339 19.8709 45.7443 18.6778 45.7443 17.1923C45.7443 15.7068 45.9339 14.5136 46.3132 13.6128C46.6925 12.7121 47.3009 12.0641 48.1385 11.669C48.9918 11.2739 50.1139 11.0764 51.5046 11.0764ZM51.5046 13.2573C50.8092 13.2573 50.2561 13.3758 49.8452 13.6128C49.4501 13.8341 49.1657 14.2292 48.9918 14.7981C48.818 15.367 48.7311 16.1651 48.7311 17.1923C48.7311 18.2195 48.818 19.0176 48.9918 19.5865C49.1657 20.1554 49.4501 20.5505 49.8452 20.7717C50.2561 20.993 50.8092 21.1036 51.5046 21.1036C52.2157 21.1036 52.7767 20.993 53.1876 20.7717C53.5985 20.5505 53.883 20.1554 54.041 19.5865C54.2148 19.0176 54.3018 18.2195 54.3018 17.1923C54.3018 16.1651 54.2148 15.367 54.041 14.7981C53.883 14.2292 53.5985 13.8341 53.1876 13.6128C52.7767 13.3758 52.2157 13.2573 51.5046 13.2573ZM65.8479 11.0764C66.7803 11.0764 67.5626 11.2028 68.1947 11.4557C68.8426 11.6927 69.3325 12.1036 69.6644 12.6883C69.9963 13.2731 70.1622 14.079 70.1622 15.1063V23H67.8865L67.4836 20.4873L67.2702 20.1554V15.0825C67.2702 14.4662 67.128 14.0237 66.8435 13.7551C66.5591 13.4706 66.0139 13.3284 65.2079 13.3284C64.6074 13.3284 63.8488 13.3521 62.9322 13.3995C62.0314 13.4469 61.1227 13.5101 60.2061 13.5891L59.9454 11.6216C60.4985 11.511 61.1227 11.4162 61.8181 11.3372C62.5134 11.2581 63.2167 11.1949 63.9278 11.1475C64.639 11.1001 65.279 11.0764 65.8479 11.0764ZM68.9296 15.8411L68.9059 17.619H63.5722C63.0981 17.6348 62.7584 17.7612 62.5529 17.9983C62.3475 18.2353 62.2448 18.5593 62.2448 18.9702V19.6102C62.2448 20.0843 62.3712 20.4478 62.624 20.7006C62.8769 20.9377 63.272 21.0562 63.8093 21.0562C64.236 21.0562 64.7101 20.9693 65.2316 20.7954C65.7531 20.6216 66.2667 20.3688 66.7724 20.0369C67.2939 19.705 67.7601 19.3099 68.171 18.8516V20.345C68.013 20.5821 67.7838 20.8666 67.4836 21.1984C67.1833 21.5145 66.8119 21.8306 66.3694 22.1466C65.9427 22.4627 65.4449 22.7234 64.876 22.9289C64.3229 23.1343 63.7066 23.237 63.027 23.237C62.3317 23.237 61.7075 23.1185 61.1543 22.8815C60.6012 22.6286 60.1666 22.2651 59.8506 21.791C59.5345 21.3011 59.3765 20.7006 59.3765 19.9895V18.7568C59.3765 17.8402 59.6767 17.1291 60.2773 16.6234C60.8936 16.1019 61.7312 15.8411 62.79 15.8411H68.9296ZM75.5088 11.3609L75.8881 13.6365L76.1488 13.9684V23H73.2805V11.3609H75.5088ZM81.198 11.0764L80.9135 13.7314H80.0839C79.4675 13.7314 78.8433 13.8341 78.2112 14.0395C77.579 14.245 76.7889 14.5531 75.8407 14.964L75.651 13.281C76.4728 12.5856 77.3104 12.0483 78.1638 11.669C79.0171 11.2739 79.8389 11.0764 80.6291 11.0764H81.198Z" fill="white"/>
<path d="M23.0749 6.00495C23.6177 5.97637 24.1599 6.07174 24.6603 6.28384C25.1608 6.49593 25.6064 6.81918 25.9634 7.22909C27.2204 8.59446 29.059 9.74326 27.2981 11.6006C25.9893 12.9472 24.6474 14.2584 23.3244 15.5885C22.185 16.7326 22.178 17.2481 23.3126 18.3922C25.7232 20.8264 28.1409 23.2487 30.5491 25.6899C30.8611 25.9811 31.1355 26.3101 31.366 26.6692C31.9334 27.5944 30.8952 28.0417 30.0924 27.9969C26.8979 27.9969 23.7034 27.9969 20.5089 27.9969C20.0968 28.0057 19.6872 27.9301 19.3054 27.7746C18.9237 27.6191 18.5974 27.4223 18.289 27.093C17.7028 26.5139 17.1119 25.9395 16.5493 25.3392C15.6642 24.3975 15.6759 23.3123 16.5917 22.3683C17.9241 21.0006 19.2848 19.6611 20.6219 18.2957C21.6248 17.2717 21.6318 16.7067 20.636 15.7062C17.9194 12.9707 15.1973 10.2423 12.4697 7.52099C12.0271 6.95601 11.2126 6.67116 11.0007 7.59397C10.9112 13.5122 11.0007 19.4469 10.9677 25.3721C11.0031 26.9141 10.9677 28.037 9.08447 27.9828C6.64876 27.9828 4.21619 27.9828 1.78676 27.9828C0.475528 27.9828 0.0023541 27.5002 0 26.1961C0 20.0754 0 13.9547 0 7.83409C0 6.44753 0.426092 6.02143 1.83855 6.01673C5.42384 5.99554 19.5837 6.05204 23.0749 6.00495Z" fill="white"/>
<path d="M8.51914 47C8.42468 47 8.35974 46.9587 8.32432 46.876L5.84473 41.5803C5.83293 41.5449 5.80931 41.5272 5.77389 41.5272H3.22346C3.17623 41.5272 3.15261 41.5508 3.15261 41.598V46.8229C3.15261 46.941 3.09358 47 2.9755 47H1.62944C1.51137 47 1.45233 46.941 1.45233 46.8229V34.7792C1.45233 34.6611 1.51137 34.6021 1.62944 34.6021H6.39378C7.10224 34.6021 7.72213 34.7497 8.25347 35.0449C8.79662 35.3401 9.21579 35.7533 9.51098 36.2847C9.80616 36.816 9.95376 37.43 9.95376 38.1266C9.95376 38.9532 9.73532 39.6557 9.29844 40.2343C8.87337 40.801 8.27709 41.1848 7.5096 41.3855C7.46237 41.4091 7.45056 41.4386 7.47417 41.4741L10.0423 46.7875C10.0541 46.8111 10.06 46.8406 10.06 46.876C10.06 46.9587 10.0128 47 9.91834 47H8.51914ZM3.22346 36.0721C3.17623 36.0721 3.15261 36.0957 3.15261 36.143V40.1103C3.15261 40.1575 3.17623 40.1811 3.22346 40.1811H6.18125C6.80705 40.1811 7.30887 39.9981 7.68671 39.6321C8.06455 39.2543 8.25347 38.7583 8.25347 38.1443C8.25347 37.5185 8.06455 37.0167 7.68671 36.6389C7.30887 36.261 6.80705 36.0721 6.18125 36.0721H3.22346ZM19.3297 41.3678C19.3769 41.8519 19.3946 42.3951 19.3828 42.9972C19.3828 43.1153 19.3238 43.1744 19.2057 43.1744H13.5558C13.5086 43.1744 13.485 43.198 13.485 43.2452C13.485 43.6467 13.5204 43.9537 13.5912 44.1662C13.7211 44.6385 13.9809 45.0104 14.3705 45.282C14.772 45.5418 15.2738 45.6717 15.876 45.6717C16.7497 45.6717 17.4228 45.3115 17.8951 44.5913C17.9541 44.4732 18.0309 44.4555 18.1253 44.5381L19.1349 45.2112C19.2175 45.282 19.2352 45.3588 19.188 45.4414C18.8574 45.9727 18.3851 46.3919 17.7711 46.6989C17.1689 47.0059 16.4841 47.1594 15.7166 47.1594C14.8546 47.1594 14.1285 46.9705 13.5381 46.5926C12.9477 46.2148 12.5049 45.6776 12.2097 44.9809C11.9264 44.2843 11.7847 43.44 11.7847 42.4482C11.7847 41.5862 11.8496 40.9309 11.9795 40.4822C12.192 39.6675 12.6171 39.024 13.2547 38.5517C13.8923 38.0794 14.6657 37.8433 15.5749 37.8433C16.7674 37.8433 17.6589 38.1443 18.2493 38.7465C18.8397 39.3369 19.1998 40.2107 19.3297 41.3678ZM15.5749 39.3133C15.0672 39.3133 14.648 39.4432 14.3174 39.7029C13.9868 39.9509 13.7624 40.2874 13.6444 40.7125C13.5617 40.9722 13.5086 41.3029 13.485 41.7043C13.485 41.7515 13.5086 41.7752 13.5558 41.7752H17.6117C17.6589 41.7752 17.6825 41.7515 17.6825 41.7043C17.6589 41.3147 17.6235 41.0254 17.5763 40.8365C17.4582 40.376 17.222 40.0099 16.8678 39.7384C16.5254 39.455 16.0944 39.3133 15.5749 39.3133ZM28.843 40.252C29.0674 40.8896 29.1795 41.6453 29.1795 42.519C29.1795 43.3456 29.0851 44.0599 28.8961 44.6621C28.6482 45.4532 28.2408 46.0672 27.6741 46.5041C27.1073 46.9292 26.3811 47.1417 25.4956 47.1417C25.0941 47.1417 24.7104 47.0649 24.3443 46.9114C23.9901 46.7461 23.6831 46.5159 23.4234 46.2207C23.3997 46.1971 23.3761 46.1912 23.3525 46.203C23.3407 46.2148 23.3348 46.2325 23.3348 46.2561V50.2057C23.3348 50.3238 23.2758 50.3829 23.1577 50.3829H21.8116C21.6935 50.3829 21.6345 50.3238 21.6345 50.2057V38.1621C21.6345 38.044 21.6935 37.9849 21.8116 37.9849H23.1577C23.2758 37.9849 23.3348 38.044 23.3348 38.1621V38.7465C23.3348 38.7701 23.3407 38.7879 23.3525 38.7997C23.3761 38.8115 23.3997 38.8056 23.4234 38.782C23.6831 38.4868 23.9901 38.2565 24.3443 38.0912C24.6986 37.9259 25.0823 37.8433 25.4956 37.8433C26.3457 37.8433 27.0483 38.0558 27.6032 38.4809C28.17 38.8941 28.5832 39.4845 28.843 40.252ZM26.8948 44.8215C27.2726 44.2547 27.4615 43.4754 27.4615 42.4836C27.4615 41.5744 27.3139 40.8424 27.0187 40.2874C26.6763 39.638 26.1155 39.3133 25.3362 39.3133C24.6513 39.3133 24.1318 39.6321 23.7776 40.2697C23.4942 40.7774 23.3525 41.5213 23.3525 42.5013C23.3525 43.4932 23.506 44.2488 23.813 44.7684C24.1554 45.3706 24.6572 45.6717 25.3185 45.6717C26.0269 45.6717 26.5523 45.3883 26.8948 44.8215ZM34.9845 47.1417C34.1108 47.1417 33.3492 46.9233 32.6998 46.4864C32.0504 46.0377 31.5958 45.4178 31.336 44.6267C31.1235 43.9891 31.0172 43.2688 31.0172 42.4659C31.0172 41.6276 31.1176 40.9191 31.3183 40.3405C31.5781 39.5612 32.0327 38.9532 32.6821 38.5163C33.3315 38.0676 34.1049 37.8433 35.0023 37.8433C35.8524 37.8433 36.5904 38.0676 37.2162 38.5163C37.8538 38.9532 38.3084 39.5553 38.5799 40.3228C38.7925 40.925 38.8987 41.6335 38.8987 42.4482C38.8987 43.2747 38.7925 44.0009 38.5799 44.6267C38.3202 45.4178 37.8715 46.0377 37.2339 46.4864C36.5963 46.9233 35.8465 47.1417 34.9845 47.1417ZM34.9845 45.6717C35.4568 45.6717 35.8701 45.5418 36.2243 45.282C36.5786 45.0104 36.8324 44.6326 36.9859 44.1485C37.1158 43.6998 37.1808 43.1448 37.1808 42.4836C37.1808 41.8224 37.1217 41.2733 37.0036 40.8365C36.8501 40.3524 36.5963 39.9804 36.2421 39.7207C35.8878 39.4491 35.4568 39.3133 34.9491 39.3133C34.465 39.3133 34.0458 39.4491 33.6916 39.7207C33.3374 39.9804 33.0835 40.3524 32.93 40.8365C32.8002 41.2497 32.7352 41.7988 32.7352 42.4836C32.7352 43.1685 32.8002 43.7234 32.93 44.1485C33.0717 44.6326 33.3197 45.0104 33.6739 45.282C34.0399 45.5418 34.4768 45.6717 34.9845 45.6717ZM45.0745 37.8964C45.4523 37.8964 45.7947 37.9731 46.1017 38.1266C46.1844 38.1621 46.2139 38.2329 46.1903 38.3392L45.9069 39.6675C45.8951 39.7738 45.8242 39.8092 45.6944 39.7738C45.4936 39.6911 45.2575 39.6498 44.9859 39.6498L44.7379 39.6675C44.183 39.6911 43.7225 39.886 43.3565 40.252C43.0022 40.6062 42.8251 41.0726 42.8251 41.6512V46.8229C42.8251 46.941 42.7661 47 42.648 47H41.302C41.1839 47 41.1248 46.941 41.1248 46.8229V38.1621C41.1248 38.044 41.1839 37.9849 41.302 37.9849H42.648C42.7661 37.9849 42.8251 38.044 42.8251 38.1621V39.1008C42.8251 39.1362 42.831 39.1598 42.8428 39.1716C42.8665 39.1716 42.8842 39.1598 42.896 39.1362C43.4273 38.3096 44.1535 37.8964 45.0745 37.8964ZM52.3332 39.207C52.3332 39.3251 52.2742 39.3841 52.1561 39.3841H50.2433C50.196 39.3841 50.1724 39.4078 50.1724 39.455V44.1485C50.1724 44.6444 50.2846 45.0045 50.5089 45.2289C50.7333 45.4414 51.0816 45.5477 51.5539 45.5477H52.0675C52.1856 45.5477 52.2446 45.6067 52.2446 45.7248V46.8229C52.2446 46.941 52.1856 47 52.0675 47C51.6897 47.0236 51.4181 47.0354 51.2528 47.0354C50.3554 47.0354 49.6765 46.876 49.216 46.5572C48.7673 46.2266 48.543 45.6244 48.543 44.7507V39.455C48.543 39.4078 48.5194 39.3841 48.4721 39.3841H47.3917C47.2737 39.3841 47.2146 39.3251 47.2146 39.207V38.1621C47.2146 38.044 47.2737 37.9849 47.3917 37.9849H48.4721C48.5194 37.9849 48.543 37.9613 48.543 37.9141V35.8242C48.543 35.7061 48.602 35.647 48.7201 35.647H49.9953C50.1134 35.647 50.1724 35.7061 50.1724 35.8242V37.9141C50.1724 37.9613 50.196 37.9849 50.2433 37.9849H52.1561C52.2742 37.9849 52.3332 38.044 52.3332 38.1621V39.207ZM55.4529 36.568C55.1223 36.568 54.8507 36.4618 54.6382 36.2492C54.4256 36.0367 54.3194 35.7651 54.3194 35.4345C54.3194 35.1039 54.4256 34.8323 54.6382 34.6198C54.8507 34.4073 55.1223 34.301 55.4529 34.301C55.7835 34.301 56.0551 34.4073 56.2676 34.6198C56.4801 34.8323 56.5864 35.1039 56.5864 35.4345C56.5864 35.7651 56.4801 36.0367 56.2676 36.2492C56.0551 36.4618 55.7835 36.568 55.4529 36.568ZM54.7444 46.9823C54.6263 46.9823 54.5673 46.9233 54.5673 46.8052V38.1621C54.5673 38.044 54.6263 37.9849 54.7444 37.9849H56.0905C56.2086 37.9849 56.2676 38.044 56.2676 38.1621V46.8052C56.2676 46.9233 56.2086 46.9823 56.0905 46.9823H54.7444ZM62.9604 37.861C63.9286 37.861 64.6961 38.1443 65.2629 38.7111C65.8296 39.2661 66.113 40.0217 66.113 40.9782V46.8229C66.113 46.941 66.054 47 65.9359 47H64.5898C64.4718 47 64.4127 46.941 64.4127 46.8229V41.3147C64.4127 40.7243 64.2415 40.2461 63.8991 39.8801C63.5567 39.514 63.1021 39.331 62.5353 39.331C61.9804 39.331 61.5258 39.514 61.1716 39.8801C60.8173 40.2461 60.6402 40.7184 60.6402 41.297V46.8229C60.6402 46.941 60.5812 47 60.4631 47H59.117C58.999 47 58.9399 46.941 58.9399 46.8229V38.1621C58.9399 38.044 58.999 37.9849 59.117 37.9849H60.4631C60.5812 37.9849 60.6402 38.044 60.6402 38.1621V38.7997C60.6402 38.8233 60.6461 38.841 60.6579 38.8528C60.6815 38.8646 60.6993 38.8587 60.7111 38.8351C61.2188 38.1857 61.9686 37.861 62.9604 37.861ZM74.083 38.1621C74.083 38.044 74.142 37.9849 74.2601 37.9849H75.6061C75.7242 37.9849 75.7832 38.044 75.7832 38.1621V46.5395C75.7832 47.9682 75.3759 48.9896 74.5612 49.6036C73.7583 50.2176 72.6779 50.5246 71.32 50.5246C71.1311 50.5246 70.8359 50.5127 70.4344 50.4891C70.3164 50.4773 70.2573 50.4124 70.2573 50.2943L70.3105 49.0722C70.3105 49.025 70.3282 48.9837 70.3636 48.9482C70.399 48.9128 70.4462 48.901 70.5053 48.9128C70.6706 48.9246 70.9126 48.9305 71.2314 48.9305C72.2351 48.9305 72.9612 48.7416 73.4099 48.3638C73.8586 47.9977 74.083 47.3719 74.083 46.4864V46.1676C74.083 46.144 74.0712 46.1262 74.0475 46.1144C74.0357 46.1026 74.018 46.1085 73.9944 46.1321C73.4985 46.7107 72.7723 47 71.8159 47C71.0484 47 70.3518 46.7993 69.726 46.3978C69.112 45.9964 68.6869 45.406 68.4508 44.6267C68.2973 44.1072 68.2205 43.3869 68.2205 42.4659C68.2205 41.4859 68.3091 40.7302 68.4862 40.1989C68.7105 39.4904 69.1061 38.9236 69.6728 38.4986C70.2514 38.0617 70.9303 37.8433 71.7096 37.8433C72.6779 37.8433 73.4395 38.1384 73.9944 38.7288C74.018 38.7524 74.0357 38.7642 74.0475 38.7642C74.0712 38.7524 74.083 38.7347 74.083 38.7111V38.1621ZM73.9767 44.1131C74.0121 43.9241 74.0357 43.7234 74.0475 43.5109C74.0712 43.2983 74.083 42.9441 74.083 42.4482C74.083 41.9523 74.0712 41.604 74.0475 41.4032C74.0357 41.1907 74.0062 40.99 73.959 40.801C73.8645 40.3642 73.652 40.0099 73.3214 39.7384C72.9908 39.455 72.5775 39.3133 72.0816 39.3133C71.5857 39.3133 71.1724 39.455 70.8418 39.7384C70.5112 40.0099 70.275 40.3642 70.1333 40.801C70.0035 41.1553 69.9385 41.7043 69.9385 42.4482C69.9385 43.2629 69.9976 43.8179 70.1156 44.1131C70.2337 44.5499 70.464 44.9101 70.8064 45.1934C71.1606 45.465 71.5857 45.6008 72.0816 45.6008C72.6011 45.6008 73.0203 45.465 73.3391 45.1934C73.6697 44.9101 73.8822 44.5499 73.9767 44.1131ZM85.3857 47.1417C84.5119 47.1417 83.7503 46.9233 83.1009 46.4864C82.4515 46.0377 81.9969 45.4178 81.7372 44.6267C81.5246 43.9891 81.4184 43.2688 81.4184 42.4659C81.4184 41.6276 81.5187 40.9191 81.7194 40.3405C81.9792 39.5612 82.4338 38.9532 83.0832 38.5163C83.7326 38.0676 84.506 37.8433 85.4034 37.8433C86.2535 37.8433 86.9915 38.0676 87.6173 38.5163C88.2549 38.9532 88.7095 39.5553 88.9811 40.3228C89.1936 40.925 89.2999 41.6335 89.2999 42.4482C89.2999 43.2747 89.1936 44.0009 88.9811 44.6267C88.7213 45.4178 88.2726 46.0377 87.635 46.4864C86.9974 46.9233 86.2476 47.1417 85.3857 47.1417ZM85.3857 45.6717C85.858 45.6717 86.2713 45.5418 86.6255 45.282C86.9797 45.0104 87.2336 44.6326 87.3871 44.1485C87.517 43.6998 87.5819 43.1448 87.5819 42.4836C87.5819 41.8224 87.5229 41.2733 87.4048 40.8365C87.2513 40.3524 86.9974 39.9804 86.6432 39.7207C86.289 39.4491 85.858 39.3133 85.3503 39.3133C84.8662 39.3133 84.447 39.4491 84.0928 39.7207C83.7385 39.9804 83.4847 40.3524 83.3312 40.8365C83.2013 41.2497 83.1364 41.7988 83.1364 42.4836C83.1364 43.1685 83.2013 43.7234 83.3312 44.1485C83.4729 44.6326 83.7208 45.0104 84.0751 45.282C84.4411 45.5418 84.878 45.6717 85.3857 45.6717ZM95.3376 36.0898C94.7473 36.0898 94.3458 36.202 94.1333 36.4263C93.9207 36.6507 93.8145 37.0758 93.8145 37.7016V37.9141C93.8145 37.9613 93.8381 37.9849 93.8853 37.9849H95.745C95.8631 37.9849 95.9221 38.044 95.9221 38.1621V39.3664C95.9221 39.4845 95.8631 39.5435 95.745 39.5435H93.8853C93.8381 39.5435 93.8145 39.5672 93.8145 39.6144V46.8229C93.8145 46.941 93.7554 47 93.6374 47H92.2913C92.1732 47 92.1142 46.941 92.1142 46.8229V39.6144C92.1142 39.5672 92.0906 39.5435 92.0433 39.5435H90.8567C90.7386 39.5435 90.6796 39.4845 90.6796 39.3664V38.1621C90.6796 38.044 90.7386 37.9849 90.8567 37.9849H92.0433C92.0906 37.9849 92.1142 37.9613 92.1142 37.9141V37.5953C92.1142 36.816 92.2027 36.2138 92.3799 35.7887C92.5688 35.3637 92.8817 35.0626 93.3186 34.8855C93.7554 34.6965 94.3694 34.6021 95.1605 34.6021H95.7627C95.8808 34.6021 95.9398 34.6611 95.9398 34.7792V35.9127C95.9398 36.0308 95.8808 36.0898 95.7627 36.0898H95.3376ZM109.159 47C109.053 47 108.982 46.9528 108.947 46.8583L108.309 44.7861C108.297 44.7507 108.274 44.733 108.238 44.733H103.261C103.226 44.733 103.202 44.7507 103.191 44.7861L102.553 46.8583C102.518 46.9528 102.447 47 102.34 47H100.906C100.776 47 100.729 46.9351 100.764 46.8052L104.643 34.7438C104.678 34.6493 104.749 34.6021 104.855 34.6021H106.627C106.733 34.6021 106.804 34.6493 106.839 34.7438L110.753 46.8052L110.771 46.876C110.771 46.9587 110.718 47 110.612 47H109.159ZM103.633 43.2983C103.622 43.322 103.622 43.3456 103.633 43.3692C103.657 43.381 103.681 43.3869 103.704 43.3869H107.778C107.801 43.3869 107.819 43.381 107.831 43.3692C107.855 43.3456 107.86 43.322 107.849 43.2983L105.794 36.7274C105.782 36.7038 105.765 36.692 105.741 36.692C105.717 36.692 105.7 36.7038 105.688 36.7274L103.633 43.2983ZM112.753 47C112.635 47 112.575 46.941 112.575 46.8229V34.7792C112.575 34.6611 112.635 34.6021 112.753 34.6021H114.099C114.217 34.6021 114.276 34.6611 114.276 34.7792V46.8229C114.276 46.941 114.217 47 114.099 47H112.753ZM116.921 47C116.803 47 116.744 46.941 116.744 46.8229V34.7792C116.744 34.6611 116.803 34.6021 116.921 34.6021H118.267C118.385 34.6021 118.444 34.6611 118.444 34.7792V46.8229C118.444 46.941 118.385 47 118.267 47H116.921ZM121.939 36.568C121.609 36.568 121.337 36.4618 121.125 36.2492C120.912 36.0367 120.806 35.7651 120.806 35.4345C120.806 35.1039 120.912 34.8323 121.125 34.6198C121.337 34.4073 121.609 34.301 121.939 34.301C122.27 34.301 122.542 34.4073 122.754 34.6198C122.967 34.8323 123.073 35.1039 123.073 35.4345C123.073 35.7651 122.967 36.0367 122.754 36.2492C122.542 36.4618 122.27 36.568 121.939 36.568ZM121.231 46.9823C121.113 46.9823 121.054 46.9233 121.054 46.8052V38.1621C121.054 38.044 121.113 37.9849 121.231 37.9849H122.577C122.695 37.9849 122.754 38.044 122.754 38.1621V46.8052C122.754 46.9233 122.695 46.9823 122.577 46.9823H121.231ZM128.721 37.8433C129.441 37.8433 130.067 37.9731 130.598 38.2329C131.141 38.4809 131.555 38.8351 131.838 39.2956C132.133 39.7443 132.281 40.2579 132.281 40.8365V46.8229C132.281 46.941 132.222 47 132.104 47H130.758C130.64 47 130.581 46.941 130.581 46.8229V46.1853C130.581 46.1262 130.551 46.1144 130.492 46.1499C130.185 46.4687 129.807 46.7166 129.358 46.8937C128.922 47.059 128.432 47.1417 127.888 47.1417C127.015 47.1417 126.288 46.9233 125.71 46.4864C125.143 46.0377 124.86 45.3647 124.86 44.4673C124.86 43.5463 125.179 42.826 125.816 42.3065C126.466 41.7752 127.369 41.5095 128.526 41.5095H130.51C130.557 41.5095 130.581 41.4859 130.581 41.4386V40.9604C130.581 40.4409 130.427 40.0395 130.12 39.7561C129.825 39.4609 129.37 39.3133 128.756 39.3133C128.26 39.3133 127.853 39.4137 127.534 39.6144C127.227 39.8033 127.038 40.0631 126.967 40.3937C126.932 40.5118 126.861 40.5649 126.755 40.5531L125.32 40.3583C125.202 40.3346 125.149 40.2874 125.161 40.2166C125.255 39.5199 125.627 38.9532 126.277 38.5163C126.926 38.0676 127.741 37.8433 128.721 37.8433ZM128.26 45.7071C128.886 45.7071 129.429 45.5418 129.89 45.2112C130.35 44.8805 130.581 44.4614 130.581 43.9537V42.9087C130.581 42.8615 130.557 42.8378 130.51 42.8378H128.845C128.148 42.8378 127.593 42.9736 127.18 43.2452C126.767 43.5168 126.56 43.8946 126.56 44.3787C126.56 44.8156 126.714 45.1462 127.021 45.3706C127.339 45.5949 127.753 45.7071 128.26 45.7071ZM138.597 37.861C139.565 37.861 140.332 38.1443 140.899 38.7111C141.466 39.2661 141.749 40.0217 141.749 40.9782V46.8229C141.749 46.941 141.69 47 141.572 47H140.226C140.108 47 140.049 46.941 140.049 46.8229V41.3147C140.049 40.7243 139.878 40.2461 139.535 39.8801C139.193 39.514 138.738 39.331 138.172 39.331C137.617 39.331 137.162 39.514 136.808 39.8801C136.454 40.2461 136.277 40.7184 136.277 41.297V46.8229C136.277 46.941 136.217 47 136.099 47H134.753C134.635 47 134.576 46.941 134.576 46.8229V38.1621C134.576 38.044 134.635 37.9849 134.753 37.9849H136.099C136.217 37.9849 136.277 38.044 136.277 38.1621V38.7997C136.277 38.8233 136.282 38.841 136.294 38.8528C136.318 38.8646 136.336 38.8587 136.347 38.8351C136.855 38.1857 137.605 37.861 138.597 37.861ZM147.685 47.1417C146.788 47.1417 146.02 46.9173 145.382 46.4687C144.745 46.0082 144.308 45.3883 144.072 44.609C143.895 44.0658 143.806 43.3515 143.806 42.4659C143.806 41.6512 143.895 40.9368 144.072 40.3228C144.308 39.5672 144.745 38.965 145.382 38.5163C146.032 38.0676 146.799 37.8433 147.685 37.8433C148.571 37.8433 149.344 38.0676 150.005 38.5163C150.666 38.965 151.097 39.5317 151.298 40.2166C151.369 40.4055 151.416 40.6003 151.44 40.801C151.44 40.8955 151.387 40.9545 151.28 40.9782L149.952 41.173H149.917C149.834 41.173 149.775 41.1198 149.739 41.0136L149.686 40.7302C149.592 40.3287 149.362 39.9922 148.996 39.7207C148.63 39.4491 148.187 39.3133 147.667 39.3133C147.16 39.3133 146.729 39.4491 146.374 39.7207C146.02 39.9922 145.79 40.3524 145.684 40.801C145.577 41.2261 145.524 41.787 145.524 42.4836C145.524 43.1685 145.577 43.7234 145.684 44.1485C145.802 44.6208 146.032 44.9927 146.374 45.2643C146.729 45.5359 147.16 45.6717 147.667 45.6717C148.187 45.6717 148.63 45.5359 148.996 45.2643C149.373 44.9927 149.61 44.6385 149.704 44.2016C149.716 44.1898 149.716 44.178 149.704 44.1662C149.704 44.1426 149.71 44.1249 149.722 44.1131V44.0422C149.757 43.9478 149.822 43.9123 149.917 43.9359L151.245 44.1485C151.339 44.1721 151.387 44.2193 151.387 44.2902V44.361C151.387 44.4673 151.357 44.5972 151.298 44.7507C151.097 45.4709 150.666 46.0495 150.005 46.4864C149.344 46.9233 148.571 47.1417 147.685 47.1417ZM160.622 41.3678C160.67 41.8519 160.687 42.3951 160.676 42.9972C160.676 43.1153 160.616 43.1744 160.498 43.1744H154.848C154.801 43.1744 154.778 43.198 154.778 43.2452C154.778 43.6467 154.813 43.9537 154.884 44.1662C155.014 44.6385 155.274 45.0104 155.663 45.282C156.065 45.5418 156.566 45.6717 157.169 45.6717C158.042 45.6717 158.715 45.3115 159.188 44.5913C159.247 44.4732 159.324 44.4555 159.418 44.5381L160.428 45.2112C160.51 45.282 160.528 45.3588 160.481 45.4414C160.15 45.9727 159.678 46.3919 159.064 46.6989C158.462 47.0059 157.777 47.1594 157.009 47.1594C156.147 47.1594 155.421 46.9705 154.831 46.5926C154.24 46.2148 153.798 45.6776 153.502 44.9809C153.219 44.2843 153.077 43.44 153.077 42.4482C153.077 41.5862 153.142 40.9309 153.272 40.4822C153.485 39.6675 153.91 39.024 154.547 38.5517C155.185 38.0794 155.958 37.8433 156.868 37.8433C158.06 37.8433 158.952 38.1443 159.542 38.7465C160.132 39.3369 160.492 40.2107 160.622 41.3678ZM156.868 39.3133C156.36 39.3133 155.941 39.4432 155.61 39.7029C155.279 39.9509 155.055 40.2874 154.937 40.7125C154.854 40.9722 154.801 41.3029 154.778 41.7043C154.778 41.7515 154.801 41.7752 154.848 41.7752H158.904C158.952 41.7752 158.975 41.7515 158.975 41.7043C158.952 41.3147 158.916 41.0254 158.869 40.8365C158.751 40.376 158.515 40.0099 158.161 39.7384C157.818 39.455 157.387 39.3133 156.868 39.3133ZM173.646 47C173.552 47 173.487 46.9587 173.451 46.876L170.972 41.5803C170.96 41.5449 170.936 41.5272 170.901 41.5272H168.35C168.303 41.5272 168.279 41.5508 168.279 41.598V46.8229C168.279 46.941 168.22 47 168.102 47H166.756C166.638 47 166.579 46.941 166.579 46.8229V34.7792C166.579 34.6611 166.638 34.6021 166.756 34.6021H171.521C172.229 34.6021 172.849 34.7497 173.38 35.0449C173.923 35.3401 174.343 35.7533 174.638 36.2847C174.933 36.816 175.081 37.43 175.081 38.1266C175.081 38.9532 174.862 39.6557 174.425 40.2343C174 40.801 173.404 41.1848 172.636 41.3855C172.589 41.4091 172.577 41.4386 172.601 41.4741L175.169 46.7875C175.181 46.8111 175.187 46.8406 175.187 46.876C175.187 46.9587 175.14 47 175.045 47H173.646ZM168.35 36.0721C168.303 36.0721 168.279 36.0957 168.279 36.143V40.1103C168.279 40.1575 168.303 40.1811 168.35 40.1811H171.308C171.934 40.1811 172.436 39.9981 172.814 39.6321C173.191 39.2543 173.38 38.7583 173.38 38.1443C173.38 37.5185 173.191 37.0167 172.814 36.6389C172.436 36.261 171.934 36.0721 171.308 36.0721H168.35ZM184.457 41.3678C184.504 41.8519 184.521 42.3951 184.51 42.9972C184.51 43.1153 184.451 43.1744 184.333 43.1744H178.683C178.635 43.1744 178.612 43.198 178.612 43.2452C178.612 43.6467 178.647 43.9537 178.718 44.1662C178.848 44.6385 179.108 45.0104 179.497 45.282C179.899 45.5418 180.401 45.6717 181.003 45.6717C181.877 45.6717 182.55 45.3115 183.022 44.5913C183.081 44.4732 183.158 44.4555 183.252 44.5381L184.262 45.2112C184.344 45.282 184.362 45.3588 184.315 45.4414C183.984 45.9727 183.512 46.3919 182.898 46.6989C182.296 47.0059 181.611 47.1594 180.843 47.1594C179.981 47.1594 179.255 46.9705 178.665 46.5926C178.075 46.2148 177.632 45.6776 177.337 44.9809C177.053 44.2843 176.912 43.44 176.912 42.4482C176.912 41.5862 176.976 40.9309 177.106 40.4822C177.319 39.6675 177.744 39.024 178.382 38.5517C179.019 38.0794 179.793 37.8433 180.702 37.8433C181.894 37.8433 182.786 38.1443 183.376 38.7465C183.967 39.3369 184.327 40.2107 184.457 41.3678ZM180.702 39.3133C180.194 39.3133 179.775 39.4432 179.444 39.7029C179.114 39.9509 178.889 40.2874 178.771 40.7125C178.689 40.9722 178.635 41.3029 178.612 41.7043C178.612 41.7515 178.635 41.7752 178.683 41.7752H182.739C182.786 41.7752 182.809 41.7515 182.809 41.7043C182.786 41.3147 182.75 41.0254 182.703 40.8365C182.585 40.376 182.349 40.0099 181.995 39.7384C181.652 39.455 181.221 39.3133 180.702 39.3133ZM189.687 47.1063C188.979 47.1063 188.353 47 187.81 46.7875C187.278 46.5749 186.865 46.2856 186.57 45.9196C186.275 45.5418 186.127 45.1285 186.127 44.6798V44.485C186.127 44.3669 186.186 44.3079 186.304 44.3079H187.579C187.697 44.3079 187.757 44.3669 187.757 44.485V44.5735C187.757 44.9042 187.934 45.1934 188.288 45.4414C188.654 45.6894 189.114 45.8133 189.669 45.8133C190.201 45.8133 190.632 45.7012 190.962 45.4768C191.293 45.2407 191.458 44.9455 191.458 44.5913C191.458 44.2488 191.305 43.995 190.998 43.8297C190.691 43.6526 190.195 43.4695 189.51 43.2806C188.837 43.0917 188.27 42.9028 187.81 42.7139C187.361 42.5131 186.977 42.2357 186.658 41.8814C186.351 41.5154 186.198 41.049 186.198 40.4822C186.198 39.6911 186.505 39.0653 187.119 38.6048C187.745 38.1325 188.571 37.8964 189.599 37.8964C190.283 37.8964 190.886 38.0086 191.405 38.2329C191.936 38.4454 192.344 38.7465 192.627 39.1362C192.911 39.5258 193.052 39.9627 193.052 40.4468V40.4999C193.052 40.618 192.993 40.6771 192.875 40.6771H191.635C191.517 40.6771 191.458 40.618 191.458 40.4999V40.4468C191.458 40.1044 191.287 39.821 190.945 39.5967C190.614 39.3605 190.159 39.2424 189.581 39.2424C189.061 39.2424 188.636 39.3428 188.306 39.5435C187.987 39.7443 187.827 40.0158 187.827 40.3583C187.827 40.7007 187.981 40.9604 188.288 41.1376C188.607 41.3147 189.114 41.5036 189.811 41.7043C190.496 41.8932 191.063 42.0822 191.511 42.2711C191.972 42.4482 192.361 42.7198 192.68 43.0858C192.999 43.44 193.158 43.9064 193.158 44.485C193.158 45.2879 192.84 45.9255 192.202 46.3978C191.576 46.8701 190.738 47.1063 189.687 47.1063ZM200.514 38.1621C200.514 38.044 200.573 37.9849 200.691 37.9849H202.02C202.138 37.9849 202.197 38.044 202.197 38.1621V46.8229C202.197 46.941 202.138 47 202.02 47H200.691C200.573 47 200.514 46.941 200.514 46.8229V46.1676C200.514 46.144 200.502 46.1321 200.479 46.1321C200.467 46.1203 200.449 46.1262 200.426 46.1499C199.953 46.7993 199.227 47.124 198.247 47.124C197.668 47.124 197.131 47.0118 196.635 46.7875C196.151 46.5631 195.762 46.2325 195.466 45.7956C195.171 45.3588 195.024 44.8274 195.024 44.2016V38.1621C195.024 38.044 195.083 37.9849 195.201 37.9849H196.529C196.647 37.9849 196.706 38.044 196.706 38.1621V43.6703C196.706 44.2843 196.866 44.7684 197.184 45.1226C197.515 45.4768 197.975 45.6539 198.566 45.6539C199.156 45.6539 199.628 45.4768 199.983 45.1226C200.337 44.7566 200.514 44.2725 200.514 43.6703V38.1621ZM204.855 47C204.737 47 204.678 46.941 204.678 46.8229V34.7792C204.678 34.6611 204.737 34.6021 204.855 34.6021H206.201C206.319 34.6021 206.378 34.6611 206.378 34.7792V46.8229C206.378 46.941 206.319 47 206.201 47H204.855ZM213.292 39.207C213.292 39.3251 213.233 39.3841 213.115 39.3841H211.202C211.155 39.3841 211.131 39.4078 211.131 39.455V44.1485C211.131 44.6444 211.243 45.0045 211.467 45.2289C211.692 45.4414 212.04 45.5477 212.512 45.5477H213.026C213.144 45.5477 213.203 45.6067 213.203 45.7248V46.8229C213.203 46.941 213.144 47 213.026 47C212.648 47.0236 212.377 47.0354 212.211 47.0354C211.314 47.0354 210.635 46.876 210.174 46.5572C209.726 46.2266 209.501 45.6244 209.501 44.7507V39.455C209.501 39.4078 209.478 39.3841 209.431 39.3841H208.35C208.232 39.3841 208.173 39.3251 208.173 39.207V38.1621C208.173 38.044 208.232 37.9849 208.35 37.9849H209.431C209.478 37.9849 209.501 37.9613 209.501 37.9141V35.8242C209.501 35.7061 209.56 35.647 209.679 35.647H210.954C211.072 35.647 211.131 35.7061 211.131 35.8242V37.9141C211.131 37.9613 211.155 37.9849 211.202 37.9849H213.115C213.233 37.9849 213.292 38.044 213.292 38.1621V39.207ZM218.554 47.1063C217.846 47.1063 217.22 47 216.677 46.7875C216.146 46.5749 215.732 46.2856 215.437 45.9196C215.142 45.5418 214.994 45.1285 214.994 44.6798V44.485C214.994 44.3669 215.053 44.3079 215.172 44.3079H216.447C216.565 44.3079 216.624 44.3669 216.624 44.485V44.5735C216.624 44.9042 216.801 45.1934 217.155 45.4414C217.521 45.6894 217.982 45.8133 218.537 45.8133C219.068 45.8133 219.499 45.7012 219.83 45.4768C220.16 45.2407 220.326 44.9455 220.326 44.5913C220.326 44.2488 220.172 43.995 219.865 43.8297C219.558 43.6526 219.062 43.4695 218.377 43.2806C217.704 43.0917 217.138 42.9028 216.677 42.7139C216.228 42.5131 215.845 42.2357 215.526 41.8814C215.219 41.5154 215.065 41.049 215.065 40.4822C215.065 39.6911 215.372 39.0653 215.986 38.6048C216.612 38.1325 217.439 37.8964 218.466 37.8964C219.151 37.8964 219.753 38.0086 220.272 38.2329C220.804 38.4454 221.211 38.7465 221.494 39.1362C221.778 39.5258 221.92 39.9627 221.92 40.4468V40.4999C221.92 40.618 221.861 40.6771 221.742 40.6771H220.503C220.385 40.6771 220.326 40.618 220.326 40.4999V40.4468C220.326 40.1044 220.154 39.821 219.812 39.5967C219.481 39.3605 219.027 39.2424 218.448 39.2424C217.929 39.2424 217.504 39.3428 217.173 39.5435C216.854 39.7443 216.695 40.0158 216.695 40.3583C216.695 40.7007 216.848 40.9604 217.155 41.1376C217.474 41.3147 217.982 41.5036 218.678 41.7043C219.363 41.8932 219.93 42.0822 220.379 42.2711C220.839 42.4482 221.229 42.7198 221.548 43.0858C221.866 43.44 222.026 43.9064 222.026 44.485C222.026 45.2879 221.707 45.9255 221.069 46.3978C220.444 46.8701 219.605 47.1063 218.554 47.1063Z" fill="white"/>
</svg>
