<svg width="176" height="119" viewBox="0 0 176 119" fill="none" xmlns="http://www.w3.org/2000/svg">
<path d="M97.4056 9.98496C90.8955 11.92 85.6958 15.627 82.8346 19.2041C76.0564 27.1462 73.656 39.9443 78.3739 50.4277C84.1256 63.0968 99.1555 68.7582 112.631 65.0586C116.978 63.9382 120.994 61.7974 124.348 58.8139C125.002 59.4681 127.797 62.085 128.391 62.8581C129.82 60.0634 131.842 56.4946 132.437 54.8885C131.751 54.0861 130.972 53.3676 130.117 52.7479C133.659 48.9257 135.984 44.1376 136.8 38.9913C137.615 33.845 136.883 28.5724 134.697 23.8427C128.684 10.8585 112.309 5.56105 97.4056 9.98496ZM133.447 40.9118C132.365 46.6451 129.062 52.395 123.931 55.2451C123.753 55.3649 123.515 55.0672 123.694 54.9484C127.247 52.1491 129.936 48.4023 131.452 44.1402C132.967 39.8782 133.247 35.2746 132.258 30.8606C130.911 24.7329 127.475 19.7109 123.099 15.2188C123.039 15.1599 123.099 14.9811 123.218 15.0401C129.973 19.9653 135.43 30.41 133.447 40.9118ZM77.2442 38.8302C77.1823 34.9252 78.081 31.0647 79.8611 27.5885C79.9201 27.4696 80.0988 27.5295 80.0389 27.6484C77.8946 33.2304 77.5403 39.3415 79.0253 45.1339C79.9772 48.9405 81.8819 52.0329 83.9616 55.304C84.1403 55.6017 83.7238 55.9583 83.4262 55.7205C80.4997 52.9036 77.3557 46.2857 77.2442 38.8302ZM103.473 60.1223C99.9183 59.9953 96.4398 59.0597 93.3015 57.3865C77.7537 49.1257 79.0041 25.8248 94.6698 17.7169C107.164 11.1571 125.427 14.7378 129.581 28.8389C131.185 34.3815 130.655 40.3241 128.095 45.4951C123.822 54.1642 113.761 60.5748 103.473 60.1223Z" fill="#074B86"/>
<path d="M139.874 91.5849C140.053 92.8934 140.231 94.3797 139.398 95.5103C138.09 97.1763 135.592 97.5919 133.685 98.0084C128.502 99.2063 27.2262 117.083 25.0239 117.457C21.386 118.156 19.1957 117.503 17.8873 114.067C14.3489 104.268 0.433034 28.0284 1.11675 24.6162C1.47336 22.8323 3.01956 22.237 4.56577 21.9394C6.70723 21.5238 109.243 2.55102 115.071 1.89679C116.617 1.71803 118.164 1.59916 119.65 1.42132C120.78 1.30153 122.208 0.944923 123.219 1.59916C125.125 2.6404 126.293 9.50618 126.371 11.8273C126.379 11.9483 126.432 12.0619 126.521 12.1449C126.609 12.2279 126.726 12.2741 126.847 12.2741C126.968 12.2741 127.085 12.2279 127.173 12.1449C127.261 12.0619 127.315 11.9483 127.322 11.8273C127.203 9.67288 126.844 7.53844 126.251 5.46375C124.927 0.356112 123.33 0.211445 120.723 0.348742C108.934 1.30429 98.7524 3.36651 88.4865 5.28498C81.2899 6.65242 15.6914 18.905 7.48218 20.5701C4.21561 21.2695 1.28446 20.9663 0.286523 23.9601C-0.308738 25.9228 0.166734 28.0634 0.523337 30.0261C1.45769 34.697 1.78573 40.0626 7.18455 68.8037C10.3967 85.9954 13.7269 101.737 15.2141 108.177C16.0296 111.617 16.5687 116.039 19.3183 117.87C22.0974 119.677 27.0493 118.075 33.8893 116.801C48.2815 114.184 129.465 99.8458 132.024 99.315C134.827 98.7013 138.586 98.2351 140.113 95.6872C140.886 94.3779 140.648 92.8307 140.47 91.3453C140.933 85.0582 137.947 75.6004 139.874 91.5849Z" fill="#074B86"/>
<path d="M44.8291 30.8611C51.9077 29.4991 74.031 25.5682 78.0163 24.8541C78.5517 24.7352 78.313 23.9621 77.7785 24.081C60.7021 26.4998 22.7206 34.3386 22.5833 34.6077C22.5243 34.6676 24.546 47.5145 25.0814 48.3466C25.6923 49.1317 23.2385 49.2091 62.7293 41.8043C66.7137 41.0312 70.8179 40.318 74.7433 39.3062C74.7832 39.2911 74.8166 39.2626 74.8379 39.2256C74.8592 39.1886 74.8669 39.1454 74.8599 39.1033C74.8528 39.0612 74.8313 39.0229 74.7991 38.9948C74.767 38.9668 74.726 38.9508 74.6834 38.9496C66.6428 39.9457 60.8763 41.3887 40.0689 45.1943C35.3114 46.0863 30.3751 46.6816 25.6766 47.99C25.7356 47.9301 23.5951 36.0949 23.2974 35.1431C30.5548 34.1921 37.6933 32.235 44.8291 30.8611Z" fill="#074B86"/>
<path d="M27.3467 36.8092C27.2868 36.5116 26.7514 36.5705 26.8113 36.8682C27.1679 39.6639 27.5844 42.5185 28.1797 45.3133C28.2985 45.9086 29.1933 45.6708 29.0716 45.0756C28.54 41.3547 27.5549 38.055 27.3467 36.8092Z" fill="#074B86"/>
<path d="M19.2592 65.7127C22.16 65.0547 72.7268 55.6024 73.0843 55.5425C73.4999 55.4836 72.1914 48.2271 71.7758 48.287C63.8061 49.7733 18.0696 58.2783 17.8909 58.6994C17.6495 59.1113 18.7773 65.8214 19.2592 65.7127Z" fill="#074B86"/>
<path d="M80.3978 90.0386C80.8143 89.9788 79.5058 82.7223 79.0893 82.7831C71.1196 84.2694 25.384 92.7744 25.2053 93.1956C25.0274 93.5522 26.0972 100.272 26.6326 100.213C29.49 99.6144 80.101 90.0985 80.3978 90.0386Z" fill="#074B86"/>
<path d="M133.513 54.9488C132.939 56.1319 128.529 64.6499 128.219 65.2378C127.562 66.2341 127.042 67.3142 126.673 68.449C126.315 70.6495 130.776 69.1632 131.668 68.8655C135.846 67.6602 139.428 64.9474 141.72 61.2525C141.481 61.669 144.753 63.1562 145.11 63.334C147.782 64.4646 151.474 65.4755 154.21 63.9293C154.328 63.8694 154.268 63.6317 154.151 63.6317C151.018 63.8058 148.88 64.0205 144.752 62.1444C143.772 61.7601 142.851 61.2396 142.017 60.5982C141.993 60.5415 141.955 60.4921 141.906 60.4555C141.856 60.4189 141.798 60.3964 141.737 60.3903C141.676 60.3842 141.614 60.3949 141.559 60.4211C141.503 60.4474 141.456 60.4882 141.422 60.5392C139.045 64.0423 135.572 66.6571 131.549 67.9736C130.835 68.2113 128.516 69.2221 127.801 68.6868C127.326 68.3302 128.456 66.9028 128.631 66.6052C129.608 64.8756 134.632 54.5747 135.59 53.5205C136.402 52.8204 137.431 52.4212 138.503 52.3899C143.083 51.7356 147.544 50.7838 152.182 50.6649C158.201 50.6649 157.148 51.1173 160.153 51.379C161.461 51.4979 162.531 50.7248 163.662 50.1894C164.256 49.8918 166.635 48.5244 167.23 48.1678C167.268 48.1511 167.298 48.1202 167.314 48.0817C167.329 48.0432 167.33 48.0001 167.314 47.9615C167.299 47.9228 167.269 47.8917 167.231 47.8747C167.193 47.8576 167.15 47.856 167.111 47.8701C162.149 49.855 161.502 50.6751 160.212 50.5424C157.714 50.3046 155.276 49.7693 152.719 49.7693C147.781 49.7693 143.024 50.7829 138.147 51.4942C135.737 51.8204 134.752 52.3936 133.513 54.9488Z" fill="#074B86"/>
<path d="M148.081 68.1521C148.1 68.1246 148.113 68.0935 148.12 68.0607C148.126 68.028 148.125 67.9942 148.118 67.9617C148.111 67.9292 148.096 67.8985 148.077 67.8717C148.057 67.8449 148.031 67.8226 148.002 67.8061C147.973 67.7896 147.941 67.7793 147.908 67.7759C147.875 67.7725 147.841 67.7761 147.809 67.7863C147.778 67.7966 147.748 67.8133 147.724 67.8355C147.699 67.8577 147.679 67.8849 147.665 67.9152C144.424 73.0754 137.004 78.0282 131.844 74.9321C130.402 74.022 129.361 72.5976 128.931 70.9478C128.871 70.769 128.573 70.8289 128.633 71.0076C128.633 74.4253 131.973 76.7797 135.473 76.8948C137.306 76.8934 139.108 76.4226 140.707 75.5274C143.832 73.841 146.395 71.2773 148.081 68.1521Z" fill="#074B86"/>
<path d="M138.266 80.998C142.88 82.582 148.041 79.5015 150.934 75.5264C151.441 74.9459 151.843 74.2818 152.124 73.5637C152.182 73.4448 152.005 73.266 151.885 73.3858C150.297 74.4133 149.432 76.5888 146.473 78.5589C141.709 81.784 137.2 80.4147 136.124 78.5589C136.106 78.5236 136.075 78.4964 136.037 78.4826C136 78.4689 135.958 78.4695 135.921 78.4844C135.884 78.4993 135.854 78.5275 135.837 78.5633C135.819 78.5992 135.816 78.6403 135.827 78.6787C135.994 79.2451 136.308 79.7574 136.736 80.1645C137.164 80.5715 137.692 80.8589 138.266 80.998Z" fill="#074B86"/>
<path d="M154.504 80.9383C155.469 79.8329 156.144 78.5044 156.467 77.0728C156.525 76.7162 156.05 76.4186 155.871 76.8351C154.705 79.1682 153.804 80.7973 151.708 82.3638C149.886 83.8325 147.625 84.6493 145.285 84.684C144.655 84.7066 144.028 84.5964 143.444 84.3606C142.86 84.1249 142.332 83.7688 141.895 83.3157C141.776 83.1369 141.479 83.3756 141.598 83.5534C141.864 84.0773 142.277 84.5117 142.787 84.8029C143.321 85.117 143.904 85.3383 144.512 85.4571C147.176 85.9658 151.555 84.6573 154.504 80.9383Z" fill="#074B86"/>
<path d="M159.079 79.9284C159.05 79.8744 159.007 79.8293 158.954 79.7978C158.902 79.7664 158.842 79.7498 158.781 79.7498C158.72 79.7498 158.66 79.7664 158.607 79.7978C158.555 79.8293 158.512 79.8744 158.483 79.9284C158.067 80.7577 158.127 81.7123 157.591 82.5444C157.045 83.438 156.339 84.2241 155.51 84.8637C154.142 85.9345 150.455 88.4924 148.73 86.8264C148.551 86.6486 148.254 86.8863 148.373 87.0651C149.622 88.908 152.059 87.8382 153.607 87.0651C156.061 85.8902 160.424 82.1639 159.079 79.9284Z" fill="#074B86"/>
<path d="M161.336 82.9614C161.1 82.544 159.671 81.4741 159.612 81.7718C158.637 84.1596 156.755 86.0633 154.378 87.0655C154.308 87.0877 154.244 87.1275 154.194 87.1811C154.143 87.2348 154.107 87.3006 154.089 87.3721C154.071 87.4437 154.072 87.5186 154.091 87.5898C154.111 87.661 154.148 87.7261 154.199 87.7788C154.846 88.4331 155.679 88.8704 156.585 89.0302C157.49 89.19 158.423 89.0644 159.254 88.6707C159.775 88.4431 160.244 88.1123 160.633 87.6982C161.022 87.2841 161.323 86.7954 161.517 86.2616C161.712 85.7279 161.796 85.1602 161.765 84.5929C161.734 84.0256 161.588 83.4706 161.336 82.9614Z" fill="#074B86"/>
<path d="M174.664 63.3941C172.978 63.7808 171.342 64.3593 169.787 65.1181C166.59 66.4505 164.563 66.8689 164.258 68.568C163.901 70.5952 164.139 72.3755 163.009 74.2184C162.234 75.4404 161.198 76.4762 159.976 77.2519C159.799 77.3707 159.916 77.7282 160.155 77.6674C161.503 77.1152 162.672 76.2007 163.533 75.0252C164.394 73.8498 164.912 72.4591 165.031 71.0071C165.151 70.1778 164.794 68.9256 165.388 68.2114C165.928 67.7329 166.585 67.4047 167.292 67.2596C167.292 66.9103 172.474 65.5687 174.904 64.0483C174.976 64.0065 175.031 63.9408 175.059 63.8626C175.087 63.7844 175.087 63.6989 175.058 63.6208C175.03 63.5428 174.975 63.4773 174.903 63.4359C174.831 63.3944 174.746 63.3796 174.664 63.3941Z" fill="#074B86"/>
<path d="M89.555 36.4521C92.6327 35.9757 93.6592 35.9784 93.6592 35.4385C93.7212 33.7426 94.0837 32.0713 94.73 30.5022C95.4091 28.9484 96.4013 27.5513 97.6445 26.398C97.6959 26.3452 97.7329 26.2802 97.7521 26.209C97.7712 26.1379 97.7719 26.0631 97.754 25.9916C97.7361 25.9201 97.7002 25.8544 97.6497 25.8008C97.5993 25.7471 97.536 25.7072 97.4658 25.6848C96.3464 25.3378 95.1867 25.1377 94.0158 25.0896C92.8373 25.0511 91.6634 25.2537 90.5659 25.6848C90.388 25.7438 90.5078 25.9226 90.6258 25.9226C92.5777 25.4698 94.6175 25.5729 96.5139 26.2202C95.3829 27.3364 94.4923 28.6723 93.897 30.1456C93.2493 31.6888 92.9254 33.3485 92.9451 35.022C90.8541 35.184 88.794 35.6241 86.8192 36.3304C86.7089 34.7291 86.87 33.1206 87.2956 31.5729C87.7948 29.9838 88.4943 28.4647 89.3772 27.0523C89.4961 26.8744 89.2574 26.6957 89.0796 26.8145C87.903 28.091 87.0301 29.6168 86.5262 31.2781C85.9453 33.0808 85.743 34.984 85.9319 36.8686C85.9872 37.8204 88.6658 36.5903 89.555 36.4521Z" fill="#074B86"/>
<path d="M105.501 56.0192C103.615 55.224 102.046 55.8736 98.2453 54.3532C94.5715 52.7883 91.388 50.2609 89.0307 47.0378C88.9708 46.9189 88.7921 47.0378 88.8519 47.1566C89.109 47.7818 89.4279 48.3797 89.8038 48.9415C92.5222 52.7244 96.5874 55.3211 101.163 56.197C102.412 56.4348 104.315 56.8513 105.505 56.197C105.561 56.197 105.561 56.0782 105.501 56.0192Z" fill="#074B86"/>
<path d="M94.2496 41.4477C95.3102 40.8349 93.9529 39.1883 93.5364 37.5822C93.4765 37.2845 92.6444 37.5223 92.4057 37.5822C92.0491 37.6411 87.1728 39.0685 85.6855 40.2544C86.0007 41.4811 86.5905 42.6202 87.4105 43.5855C87.5884 43.7633 87.7671 43.4067 87.6473 43.2289C87.1137 42.3481 86.6372 41.434 86.2209 40.4921C88.3761 39.4135 90.6842 38.6725 93.0646 38.2954C93.2297 39.1859 93.4682 40.0612 93.7778 40.9123C92.2081 41.5299 90.6785 42.2451 89.1981 43.0538C88.6594 43.3763 88.1426 43.7339 87.651 44.1245C87.4732 44.3024 87.592 44.6 87.8353 44.4811C90.2081 43.1726 93.9501 41.6255 94.2496 41.4477Z" fill="#074B86"/>
<path d="M89.3179 46.5625C89.14 46.7413 89.3777 47.1569 89.6155 46.979C91.5257 45.6913 93.5117 44.5195 95.5626 43.4701C98.0606 47.2167 103.119 49.0606 107.399 49.5361C107.814 49.596 107.874 48.9417 107.518 48.8229C103.116 47.6922 99.2502 46.146 95.8003 43.1098C95.8003 42.5063 93.3455 42.3386 89.3179 46.5625Z" fill="#074B86"/>
<path d="M107.518 50.1953C106.865 51.2448 106.326 52.3616 105.912 53.5264C105.793 53.942 105.377 54.775 105.496 55.2505C105.556 55.4882 105.972 56.0798 106.21 55.5481C106.983 53.883 107.223 52.0392 107.875 50.3741C108.054 50.1308 107.696 50.011 107.518 50.1953Z" fill="#074B86"/>
<path d="M125.243 45.1355C125.278 45.2258 125.343 45.3015 125.427 45.3504C125.511 45.3992 125.608 45.4183 125.704 45.4045C125.8 45.3908 125.889 45.345 125.956 45.2745C126.022 45.2041 126.063 45.1133 126.072 45.0166C125.775 41.8643 125.058 38.7719 124.526 35.6786C122.631 24.7289 122.476 23.2997 121.79 21.1666C121.79 21.0062 121.645 20.9205 121.493 20.8699C119.81 20.8619 118.132 21.0615 116.497 21.4642C114.223 21.8706 100.889 23.5835 98.595 23.7245C97.6441 23.8434 96.7521 23.9623 95.8602 24.141C95.814 24.1416 95.7686 24.1526 95.7272 24.1732C95.6859 24.1938 95.6498 24.2234 95.6215 24.2599C95.5026 24.3788 95.6215 24.5566 95.7404 24.6755C95.8929 24.7285 96.0549 24.7489 96.2158 24.7354C104.007 24.3189 111.68 23.1293 119.411 21.9996C119.59 21.9996 121.438 21.7618 121.438 21.5831C121.537 23.9936 123.932 37.5362 124.352 39.9016C124.529 41.6646 124.826 43.4133 125.243 45.1355Z" fill="#074B86"/>
<path d="M120.243 23.4274C120.229 23.372 120.203 23.3201 120.168 23.2749C120.133 23.2297 120.089 23.192 120.039 23.1642C119.989 23.1364 119.933 23.119 119.876 23.1131C119.819 23.1072 119.762 23.1129 119.707 23.1298C118.567 23.3205 114.891 23.714 114.891 24.0227C114.891 24.3793 115.306 28.067 115.425 28.8401C115.43 28.9094 115.45 28.9769 115.484 29.0374C115.519 29.0979 115.566 29.15 115.623 29.1899C115.68 29.2299 115.745 29.2565 115.814 29.2681C115.882 29.2796 115.953 29.2757 116.019 29.2566C117.507 29.0179 119.054 28.899 120.54 28.7212C120.603 28.7221 120.665 28.7103 120.723 28.6867C120.782 28.6631 120.834 28.628 120.879 28.5836C120.923 28.5392 120.958 28.4863 120.982 28.4281C121.006 28.3699 121.017 28.3076 121.016 28.2448C121.016 28.1858 120.434 24.2567 120.243 23.4274ZM115.604 24.441C116.899 24.3723 118.189 24.2336 119.469 24.0255C119.588 24.6797 119.946 27.6532 119.946 27.8956C118.696 27.9555 117.507 28.1333 116.26 28.3121C116.195 27.6505 115.723 24.6769 115.604 24.4383V24.441Z" fill="#074B86"/>
<path d="M117.393 26.3417C117.274 26.6384 116.859 27.4115 117.333 27.5313C117.631 27.6501 117.987 27.0549 118.106 26.8171C118.167 26.8171 119.12 27.769 119.475 27.2926C119.827 26.7646 118.955 26.4513 118.345 26.044C118.345 26.044 118.701 24.8544 118.701 24.7356C118.711 24.6701 118.698 24.6034 118.666 24.5455C118.634 24.4876 118.584 24.4418 118.524 24.4149C118.464 24.388 118.396 24.3816 118.332 24.3966C118.267 24.4115 118.209 24.4471 118.167 24.4978C117.946 24.8415 117.747 25.1992 117.572 25.5686C117.209 25.3625 116.831 25.1835 116.441 25.0332C116.201 24.7899 115.78 25.2378 116.085 25.3898C116.538 25.6837 116.974 26.0014 117.393 26.3417Z" fill="#074B86"/>
<path d="M111.974 30.4442C108.161 30.9114 98.4565 32.066 94.6666 32.8234C94.6179 32.8382 94.5762 32.87 94.5489 32.9129C94.5216 32.9558 94.5106 33.0071 94.5178 33.0574C94.525 33.1077 94.5501 33.1538 94.5883 33.1873C94.6266 33.2208 94.6756 33.2395 94.7265 33.2399C97.7442 33.1146 109.86 31.6357 111.736 31.397C111.736 31.5758 112.749 37.7606 112.925 39.0691C111.617 39.1889 106.145 39.8984 104.718 40.0827C103.29 40.267 97.5212 40.9746 96.4505 41.6289C96.4204 41.6511 96.397 41.6813 96.3829 41.716C96.3689 41.7507 96.3648 41.7886 96.371 41.8256C96.3772 41.8625 96.3935 41.897 96.4181 41.9252C96.4427 41.9535 96.4747 41.9743 96.5104 41.9855C97.524 42.1642 112.866 39.8449 113.639 39.6662C114.056 39.5473 113.877 38.6526 113.817 38.3577C113.698 37.9394 112.569 30.3254 111.974 30.4442Z" fill="#074B86"/>
<path d="M114.357 42.8754C113.166 42.9049 111.979 43.173 110.848 43.2919C107.37 43.5993 103.915 44.1156 100.499 44.8381C100.464 44.8499 100.434 44.8742 100.415 44.9065C100.396 44.9388 100.39 44.9768 100.398 45.0133C100.405 45.0499 100.425 45.0825 100.455 45.1051C100.485 45.1276 100.522 45.1385 100.559 45.1357C101.153 45.1357 101.749 45.1947 102.343 45.1357C106.387 44.8381 110.491 44.4216 114.536 43.7673C114.954 43.7084 114.835 42.8634 114.357 42.8754Z" fill="#074B86"/>
<path d="M89.0811 78.0221C88.7245 75.4051 88.2518 72.7882 87.8325 70.1713C87.455 67.3632 86.8985 64.5821 86.1665 61.845C86.1555 61.809 86.1315 61.7784 86.0991 61.7591C86.0668 61.7397 86.0285 61.7331 85.9915 61.7405C85.9546 61.7478 85.9217 61.7686 85.8992 61.7988C85.8767 61.829 85.8663 61.8665 85.8698 61.904C86.0311 64.7176 86.3697 67.5182 86.8834 70.2892C87.2999 73.0849 87.6565 75.9396 88.1919 78.6745C88.2509 79.091 88.9051 79.091 89.0839 78.7933C92.8047 78.492 122.89 73.5152 122.984 73.4996C123.045 73.5042 123.107 73.4945 123.164 73.4713C123.22 73.4481 123.271 73.412 123.311 73.3658C123.352 73.3197 123.381 73.2648 123.396 73.2055C123.412 73.1462 123.413 73.0841 123.401 73.0241C122.984 69.5152 122.211 66.0652 121.558 62.6116C121.439 62.0763 120.666 62.314 120.729 62.8494C121.323 66.1205 121.977 69.3318 122.334 72.603C122.327 72.92 93.9335 77.0536 89.0811 78.0221Z" fill="#074B86"/>
<path d="M95.1473 66.605C95.1192 66.5575 95.0765 66.5204 95.0256 66.4991C94.9747 66.4778 94.9183 66.4735 94.8648 66.4869C94.8113 66.5002 94.7635 66.5305 94.7285 66.5732C94.6936 66.6159 94.6734 66.6688 94.6709 66.7239C94.4921 68.5087 95.2063 70.5304 95.5002 72.3153C95.5412 72.4114 95.6068 72.495 95.6905 72.5576C95.7741 72.6202 95.8728 72.6596 95.9766 72.6719C101.151 72.0176 114.355 69.995 115.782 69.7573C116.139 69.6983 116.079 69.4007 116.079 69.1031C115.982 67.7438 115.703 66.4037 115.25 65.1187C115.13 64.9399 114.773 64.9399 114.773 65.1777C114.645 66.4314 114.725 67.6978 115.011 68.9252C115.011 68.9842 96.3369 71.72 96.3369 71.661C96.0662 69.9485 95.6686 68.2585 95.1473 66.605Z" fill="#074B86"/>
<path d="M102.52 68.6876C104.308 68.5374 109.265 67.9274 109.359 67.9145C109.895 67.8537 110.787 67.9145 111.143 67.4381C111.182 67.4025 111.211 67.3584 111.23 67.3093C111.248 67.2602 111.254 67.2076 111.249 67.1556C111.243 67.1035 111.225 67.0536 111.197 67.0097C111.168 66.9658 111.13 66.9291 111.084 66.9027C110.43 66.4862 109.003 67.0216 108.349 67.1405C104.071 67.791 99.8316 68.0297 98.713 68.4489C98.5351 68.5088 98.5941 68.7465 98.7719 68.8064C100.02 68.9639 101.284 68.9238 102.52 68.6876Z" fill="#074B86"/>
<path d="M21.1068 72.6721C28.813 72.11 31.3645 70.2478 55.3638 66.784C58.576 66.3085 61.8472 65.9547 65.0585 65.2977C65.475 65.2378 65.4151 64.5237 64.9396 64.5237C56.3701 65.224 23.6482 71.1582 20.9861 72.0796C20.6876 72.1368 20.6876 72.732 21.1068 72.6721Z" fill="#074B86"/>
<path d="M22.763 78.4413C26.025 78.0598 29.3643 77.2517 32.5765 76.6573C39.7685 75.2171 44.1869 74.5472 47.8616 73.4452C48.0994 73.3862 48.0395 72.9697 47.8018 73.0287C47.3853 73.0885 47.0286 73.0885 46.6122 73.1475C42.2896 73.7658 23.1915 77.5972 22.7031 77.7272C22.2912 77.846 22.3493 78.4901 22.763 78.4413Z" fill="#074B86"/>
<path d="M60.9543 100.09C59.4403 100.316 30.8005 105.803 28.5992 106.394C28.2426 106.513 28.3024 107.167 28.7189 107.107C30.7406 106.87 32.7033 106.394 34.666 106.037C70.2094 99.1018 56.9386 101.843 63.8679 100.208C64.1056 100.15 64.0467 99.7321 63.8089 99.792C62.7382 99.9109 61.8444 99.9532 60.9543 100.09Z" fill="#074B86"/>
<path d="M23.48 84.4481C29.3958 83.8565 53.9959 78.771 59.9375 77.2515C60.354 77.1326 60.9511 76.2996 60.1761 76.3595C57.7969 76.4185 55.3578 77.3731 53.0385 77.8458C50.6593 78.3812 36.268 81.3547 31.4497 82.2476C28.7455 82.6334 26.0648 83.1693 23.4201 83.8528C23.1225 84.0316 23.1824 84.4481 23.48 84.4481Z" fill="#074B86"/>
<path d="M20.208 40.437C18.4379 37.3114 13.6187 40.6462 14.4388 43.4705C15.0672 45.4599 17.7754 45.7234 19.4939 44.0058C19.4939 44.0058 20.8623 44.8351 21.159 45.0194C21.9321 45.4359 22.5274 44.6628 21.6944 44.1275C21.3976 43.9487 20.1482 43.2982 20.0892 43.2346C20.337 42.8138 20.4775 42.3385 20.4983 41.8507C20.519 41.3628 20.4193 40.8773 20.208 40.437ZM17.4722 44.0648C15.2045 44.6333 14.9143 42.2219 16.2227 40.9125C16.877 40.3182 18.4232 39.6639 19.1963 40.5559C20.267 41.8644 18.7171 43.7524 17.4722 44.0648Z" fill="#074B86"/>
</svg>
