<svg width="101" height="119" viewBox="0 0 101 119" fill="none" xmlns="http://www.w3.org/2000/svg">
<path d="M14.8496 92.841L7.63505 92.9841C7.1456 92.9943 7.03825 92.8505 7.04209 92.4359C7.84271 2.32703 7.47211 8.21828 8.9986 8.31157C13.6094 8.59399 55.96 8.72626 65.6103 8.74159C65.949 10.9677 65.5867 21.712 66.4199 70.0446C68.6991 68.0401 71.1808 65.8709 73.6549 63.731C73.6063 55.3695 73.5654 46.3779 73.5705 37.9442C73.5923 3.22476 74.7565 0.373689 70.7246 0.366022C69.9834 0.364744 9.78453 0.378162 9.04333 0.366022C4.46322 0.290624 1.12591 0.232478 0.904825 4.16085C0.321449 14.5523 -0.288763 95.3693 0.148928 97.0907C0.449881 98.2754 1.33485 99.1584 2.35783 99.1661L16.4298 99.269C15.7314 97.1898 15.2081 95.0109 14.8502 92.8416L14.8496 92.841ZM41.3443 3.41901C42.9456 3.49313 42.7526 5.76018 41.3149 5.73143C39.7878 5.7014 39.7437 3.34489 41.3443 3.41901ZM36.7342 3.12253C38.676 3.15192 38.7354 6.16209 36.7048 6.13142C34.7336 6.10203 34.763 3.0925 36.7342 3.12253Z" fill="#074B86"/>
<path d="M66.623 81.1985L66.7668 88.6335L73.798 88.5651C73.7878 84.9198 73.7603 80.3078 73.7271 75.1226C71.5706 76.9602 69.2083 78.9787 66.623 81.1985Z" fill="#074B86"/>
<path d="M20.7908 86.0462C20.0496 85.958 19.9454 85.0781 20.8502 85.0085C22.6879 84.8667 20.8502 84.912 52.1135 84.9197C52.6176 84.9197 52.4253 86.0807 51.7966 86.1082C50.8113 86.1503 49.0925 86.1363 46.0951 86.1503C44.8644 86.1561 21.6655 86.1497 20.7908 86.0462Z" fill="#074B86"/>
<path d="M22.0803 90.1229C21.2062 90.0309 21.4279 89.2041 22.1097 89.2041C24.3781 89.2041 45.1751 89.4558 43.8409 89.4265C44.4933 89.4412 44.6269 90.39 43.8556 90.4047C43.8556 90.4047 23.311 90.2526 22.0803 90.1229Z" fill="#074B86"/>
<path d="M41.9929 93.1323C42.3788 93.1061 42.8082 93.147 42.8229 93.6217C42.8376 94.0965 42.4376 94.2473 42.0076 94.2294C38.968 94.1029 40.8364 94.2588 22.8112 94.2441C22.4406 94.2441 21.8949 94.3329 21.877 93.8441C21.8514 93.147 36.7924 93.4882 41.9929 93.1323Z" fill="#074B86"/>
<path d="M95.1933 91.65C92.7167 89.3241 95.0004 89.9452 58.5934 90.1823C58.5276 89.0973 58.4803 88.135 58.447 87.2814C58.1205 87.3849 57.8899 87.4692 57.5755 87.5874C57.6004 89.236 57.6324 89.7292 57.6151 90.1823C54.8286 90.197 52.8273 90.2161 52.5896 90.2264C42.6199 90.664 40.2685 102.749 34.7274 107.718C25.7243 115.791 15.5872 100.246 16.8204 82.1179C16.8772 81.2815 16.8235 81.8054 54.3136 81.6713C54.5545 81.2054 54.7442 80.8693 54.9014 80.6189C34.4354 80.6003 22.8656 80.5396 16.6274 80.8431C15.6344 80.8911 15.8536 80.7837 15.7086 84.475C15.2849 95.2365 19.8446 111.114 30.6214 111.246C58.4752 111.59 58.5934 110.579 58.6234 111.543C58.8458 118.777 58.6234 118.407 59.9723 118.554C61.484 118.719 62.0329 118.654 95.2674 118.54C100.411 118.522 100.455 118.584 100.471 117.384C100.567 110.165 100.468 96.6032 95.1933 91.65ZM58.1046 110.031C58.0899 110.031 33.4232 110.328 33.4085 110.328C34.1644 109.72 34.9222 109.321 35.558 108.742C39.303 105.327 41.0723 100.292 44.6154 95.993C53.4497 85.275 57.4937 95.94 58.5793 109.72C58.6119 110.135 58.3122 110.016 58.1046 110.031ZM60.9064 117.428C59.5429 117.444 60.7333 116.612 60.1058 109.127C58.6637 91.9158 54.1851 92.2602 54.3692 91.5906C54.4625 91.2506 63.5747 91.5905 63.5747 91.4423C94.7639 91.4423 92.6611 90.6251 94.7786 93.1618C99.1562 98.4058 98.861 111.809 99.1517 116.538C99.2156 117.576 102.428 116.957 60.9064 117.428V117.428Z" fill="#074B86"/>
<path d="M92.7233 53.5982C92.1769 52.7522 91.4926 51.9324 90.292 51.997C89.0319 52.0654 56.5667 80.4578 55.931 81.659C55.0843 83.259 54.3655 84.9165 53.6333 86.5657C53.0026 87.9854 55.4869 86.7752 57.3393 86.0915C59.3411 85.3523 58.4805 86.2398 63.4024 82.0002C94.3826 55.3158 94.4338 56.2474 92.7233 53.5982ZM62.1123 82.1044C60.2721 83.7178 59.7999 84.7427 57.1316 85.4839C56.8645 85.558 56.7169 85.528 56.5386 85.3356C55.2677 83.9676 55.1316 84.7139 56.3016 82.3114C56.8358 81.215 58.1712 84.5964 58.7034 84.2085C58.9264 84.0462 58.7469 83.8532 58.644 83.7044C56.9866 81.3108 56.8377 81.3798 57.2805 81.0213C63.8356 75.7103 81.8142 59.8978 86.6607 55.6429C87.2684 55.1094 87.0646 55.4908 89.3291 57.7777C89.8307 58.2844 91.4632 56.3649 62.113 82.1038L62.1123 82.1044ZM90.3961 57.4972C89.6997 58.1349 90.0939 57.4723 87.639 55.2442C87.3438 54.9765 87.5361 54.8449 87.7432 54.7254C87.9214 54.6225 88.0102 54.1471 88.3508 54.5477C90.5028 57.08 90.7527 57.1713 90.3961 57.4972ZM91.6562 56.356C90.6933 57.3649 91.3048 56.6621 88.7808 54.2659C88.5904 54.0851 88.5451 53.9573 88.7955 53.7918C89.2581 53.4851 89.8479 52.8685 90.2038 52.873C90.8415 52.8807 91.8396 53.5529 92.3386 54.9778C92.4734 55.3624 92.2645 55.719 91.6562 56.356Z" fill="#074B86"/>
<path d="M87.252 58.0445C87.4788 58.3378 87.1037 58.578 86.9849 58.6969C84.9083 60.5154 74.7046 69.505 73.9832 70.0372C73.4848 70.4046 73.2305 69.8513 73.5551 69.5369C74.1391 68.9714 84.1971 60.4016 86.4661 58.3563C86.7542 58.0962 87.0775 57.8196 87.252 58.0445Z" fill="#074B86"/>
<path d="M59.136 82.5635C58.3948 82.5303 58.8715 82.0996 72.0329 70.7344C72.2399 70.5554 72.776 71.1069 72.5223 71.3273C59.3411 82.7821 59.4325 82.5769 59.136 82.5635Z" fill="#074B86"/>
</svg>
